<svg xmlns="http://www.w3.org/2000/svg" viewBox="0 0 106.63 93.47"><defs><style>.cls-1{fill:#4abaeb;}.cls-2{fill:#1e293b;}</style></defs><g id="Text"><path class="cls-1" d="M58,90.66,105.45,8.42A5.61,5.61,0,0,0,100.59,0h-95A5.61,5.61,0,0,0,.76,8.42L48.24,90.66A5.61,5.61,0,0,0,58,90.66Z"/><path class="cls-2" d="M24.66,35.38a1,1,0,0,1-1.5.24c-4.18-3.7-8.3-4.77-12.26-3.18a12.79,12.79,0,0,0-4.32,3,1,1,0,0,1-1.45,0h0a1.55,1.55,0,0,1,0-2,14.93,14.93,0,0,1,5.07-3.51c3.26-1.31,8.31-1.69,14.25,3.57a1.55,1.55,0,0,1,.21,1.91Z"/><path class="cls-2" d="M55.71,35.38a1,1,0,0,1-1.51.24C50,31.92,45.91,30.85,42,32.44a12.69,12.69,0,0,0-4.32,3,1,1,0,0,1-1.45,0h0a1.55,1.55,0,0,1,0-2,14.93,14.93,0,0,1,5.07-3.51c3.25-1.31,8.31-1.69,14.25,3.57a1.55,1.55,0,0,1,.21,1.91Z"/><path class="cls-2" d="M15.29,57.26a2.07,2.07,0,0,1,2.85-.37c7.89,5.74,15.67,7.4,23.15,4.93a24.32,24.32,0,0,0,8.16-4.64,2.08,2.08,0,0,1,2.74,0h0a2.07,2.07,0,0,1,0,3.12,28.48,28.48,0,0,1-9.58,5.45c-6.15,2-15.7,2.62-26.92-5.54a2.07,2.07,0,0,1-.39-2.95Z"/></g></svg>