<svg xmlns="http://www.w3.org/2000/svg" viewBox="0 0 430.93 131.34"><defs><style>.cls-1{fill:#4abaeb;}.cls-2{fill:#1e293b;}</style></defs><g id="Text"><path class="cls-1" d="M58,90.66,105.45,8.42A5.61,5.61,0,0,0,100.59,0h-95A5.61,5.61,0,0,0,.76,8.42L48.24,90.66A5.61,5.61,0,0,0,58,90.66Z"/><path class="cls-2" d="M153,66.58H109.28q.45,5.88,3.78,9a11.6,11.6,0,0,0,8.2,3.11q7.23,0,10-6.1h20.57a28.44,28.44,0,0,1-16,19,33.23,33.23,0,0,1-13.9,2.83,33.77,33.77,0,0,1-16.49-4,28.07,28.07,0,0,1-11.3-11.3A34.88,34.88,0,0,1,90.07,62a35.34,35.34,0,0,1,4-17.18,27.8,27.8,0,0,1,11.24-11.3,34.13,34.13,0,0,1,16.61-3.95,33.75,33.75,0,0,1,16.28,3.84,27.54,27.54,0,0,1,11.12,11,33.22,33.22,0,0,1,4,16.61A50.73,50.73,0,0,1,153,66.58ZM133.57,55.84a9.92,9.92,0,0,0-3.39-7.9A12.46,12.46,0,0,0,121.71,45a12.24,12.24,0,0,0-8.19,2.82,12.55,12.55,0,0,0-4.13,8Z"/><path class="cls-2" d="M219,66.58H175.27q.45,5.88,3.78,9a11.56,11.56,0,0,0,8.19,3.11q7.23,0,10.06-6.1h20.56a28.11,28.11,0,0,1-5.7,11.18,28.51,28.51,0,0,1-10.34,7.8,33.27,33.27,0,0,1-13.9,2.83,33.72,33.72,0,0,1-16.49-4,28.09,28.09,0,0,1-11.31-11.3A34.87,34.87,0,0,1,156.06,62a35.23,35.23,0,0,1,4-17.18,27.8,27.8,0,0,1,11.24-11.3,34.13,34.13,0,0,1,16.61-3.95,33.71,33.71,0,0,1,16.27,3.84,27.5,27.5,0,0,1,11.13,11,33.21,33.21,0,0,1,4,16.61A48.43,48.43,0,0,1,219,66.58ZM199.56,55.84a9.92,9.92,0,0,0-3.39-7.9A12.47,12.47,0,0,0,187.69,45a12.26,12.26,0,0,0-8.19,2.82,12.59,12.59,0,0,0-4.12,8Z"/><path class="cls-2" d="M227.69,32.74a36.38,36.38,0,0,1,14.18-14.35,41.17,41.17,0,0,1,20.63-5.14q14.12,0,24.18,7.45A35.88,35.88,0,0,1,300.12,41H278.88a17.2,17.2,0,0,0-6.72-7.57,18.94,18.94,0,0,0-9.89-2.6,18.46,18.46,0,0,0-14.46,6.22q-5.53,6.21-5.54,16.61t5.54,16.61a18.45,18.45,0,0,0,14.46,6.21,18.85,18.85,0,0,0,9.89-2.6,17.09,17.09,0,0,0,6.72-7.57h21.24a35.6,35.6,0,0,1-13.44,20.29Q276.62,94,262.5,94a41.28,41.28,0,0,1-20.63-5.14,36.51,36.51,0,0,1-14.18-14.3,42.3,42.3,0,0,1-5.08-20.9A42.62,42.62,0,0,1,227.69,32.74Z"/><path class="cls-2" d="M308.2,44.77a27.46,27.46,0,0,1,10-11.3,26.18,26.18,0,0,1,14.13-3.95A24.23,24.23,0,0,1,344,32.23a20,20,0,0,1,7.74,7.12V30.42h19.32V93.47H351.76V84.55a20.83,20.83,0,0,1-7.85,7.11,24.27,24.27,0,0,1-11.7,2.72,25.6,25.6,0,0,1-14-4A27.65,27.65,0,0,1,308.2,79a38,38,0,0,1-3.67-17.12A37.69,37.69,0,0,1,308.2,44.77Zm39.55,5.76a13.58,13.58,0,0,0-19.55-.05q-4,4.13-4,11.35t4,11.47a13.45,13.45,0,0,0,19.55.06q4-4.19,4-11.41T347.75,50.53Z"/><path class="cls-2" d="M400.8,9.86V93.47H381.48V9.86Z"/><path class="cls-2" d="M430.51,9.86V93.47H411.19V9.86Z"/><path class="cls-1" d="M230.35,106.4c.25.44.53.94.85,1.49l1,1.73,1.12,1.88c.39.65.79,1.3,1.19,2l1.18,1.94,1.14,1.83,1.05,1.65.89,1.37c0-1.46,0-2.79,0-4s0-2.28,0-3.25,0-1.82.06-2.56.05-1.41.09-2,.07-1,.12-1.44.1-.72.16-1a1.9,1.9,0,0,1,.21-.54,1.32,1.32,0,0,1,.31-.35,1,1,0,0,1,.38-.18,1.61,1.61,0,0,1,.44,0,3.17,3.17,0,0,1,1.13.23v.09a5.69,5.69,0,0,0-.69,1.46,18.16,18.16,0,0,0-.49,2c-.14.74-.25,1.51-.33,2.33s-.15,1.63-.2,2.43-.09,1.57-.11,2.31,0,1.41-.06,2,0,1,0,1.5,0,1,0,1.46,0,1,0,1.48,0,1,0,1.54l-1,.13-.15,0c-.16-.23-.37-.53-.62-.92s-.54-.82-.85-1.32-.66-1-1-1.62-.75-1.2-1.14-1.84l-1.21-2c-.41-.66-.81-1.32-1.21-2l-1.17-1.91-1.06-1.75c-.34-.55-.64-1-.91-1.5l-.7-1.15c0,1.2,0,2.38-.05,3.52s0,2.23-.09,3.28-.08,2-.13,3-.1,1.82-.15,2.63c0,.57-.08,1.06-.12,1.46s-.09.74-.14,1a2.37,2.37,0,0,1-.22.64.92.92,0,0,1-.31.36,1.09,1.09,0,0,1-.45.15,5.59,5.59,0,0,1-.62,0H226l-.25,0-.11-.08a13.49,13.49,0,0,0,.62-1.77c.18-.65.34-1.35.48-2.08s.25-1.49.35-2.27.19-1.56.25-2.35.12-1.55.16-2.31.08-1.48.1-2.17,0-1.32,0-1.91,0-1.1,0-1.54a2.64,2.64,0,0,0-.06-.6.92.92,0,0,0-.19-.41.94.94,0,0,0-.39-.23,2.27,2.27,0,0,0-.64-.07l-.62,0-.79.1-.09-.72,1.24-.28,1-.2c.3-.06.57-.1.81-.13a5.25,5.25,0,0,1,.65,0,1.66,1.66,0,0,1,.53.07,1.27,1.27,0,0,1,.42.24,2,2,0,0,1,.37.43C230.07,105.91,230.2,106.13,230.35,106.4Z"/><path class="cls-1" d="M243,119.08a8,8,0,0,1,.17-1.67,8.5,8.5,0,0,1,.5-1.65,8,8,0,0,1,.83-1.49,5.77,5.77,0,0,1,1.14-1.22,5.15,5.15,0,0,1,1.44-.83,4.82,4.82,0,0,1,1.72-.3,3.8,3.8,0,0,1,1.85.44,4.23,4.23,0,0,1,1.36,1.16,5.21,5.21,0,0,1,.82,1.65,6.37,6.37,0,0,1,.29,1.89,8.87,8.87,0,0,1-.69,3.32,7.47,7.47,0,0,1-.83,1.49,6,6,0,0,1-1.14,1.22,5.15,5.15,0,0,1-1.44.83,4.78,4.78,0,0,1-1.72.3,3.83,3.83,0,0,1-1.85-.44,4.12,4.12,0,0,1-1.35-1.17,5.37,5.37,0,0,1-.82-1.64A6.41,6.41,0,0,1,243,119.08Zm2-.77a8.56,8.56,0,0,0,.08,1.12,6.91,6.91,0,0,0,.27,1.11,6.33,6.33,0,0,0,.44,1,3.59,3.59,0,0,0,.63.8,2.91,2.91,0,0,0,.82.54,2.51,2.51,0,0,0,1,.2,2.1,2.1,0,0,0,1.05-.26,2.66,2.66,0,0,0,.78-.68,4,4,0,0,0,.55-1,7.51,7.51,0,0,0,.35-1.14,7.63,7.63,0,0,0,.18-1.15,10.09,10.09,0,0,0,.06-1.05,7.3,7.3,0,0,0-.09-1.14,6.68,6.68,0,0,0-.27-1.09,5.52,5.52,0,0,0-.44-1,3.59,3.59,0,0,0-.63-.8,2.82,2.82,0,0,0-.82-.53,2.48,2.48,0,0,0-1-.2,2.26,2.26,0,0,0-1.05.25,2.66,2.66,0,0,0-.78.68,4.36,4.36,0,0,0-.55,1,7.35,7.35,0,0,0-.34,1.13,9.34,9.34,0,0,0-.19,1.16C244.92,117.64,244.9,118,244.9,118.31Z"/><path class="cls-1" d="M262.44,107.59a4.33,4.33,0,0,0,0-.66.92.92,0,0,0-.16-.44.7.7,0,0,0-.37-.25,2.25,2.25,0,0,0-.65-.08l-.66,0-.81.09-.09-.67c.8-.21,1.49-.36,2.07-.46a8.57,8.57,0,0,1,1.42-.15,2,2,0,0,1,.83.14.94.94,0,0,1,.43.43,1.76,1.76,0,0,1,.15.69q0,.4,0,.93s0,.2,0,.54,0,.78,0,1.34,0,1.21-.05,2,0,1.52-.06,2.34-.06,1.67-.09,2.54-.07,1.72-.11,2.54-.08,1.61-.13,2.34-.1,1.38-.15,1.93c.52-.08,1-.13,1.48-.17s.89-.05,1.29-.05c.56,0,1.08,0,1.57,0s1,0,1.44,0a2.48,2.48,0,0,0,.89-.15,1.48,1.48,0,0,0,.66-.51,3.21,3.21,0,0,0,.47-1,9.81,9.81,0,0,0,.28-1.6l.71.06a14.83,14.83,0,0,1-.18,2.36,4.45,4.45,0,0,1-.48,1.46,1.62,1.62,0,0,1-.75.74,2.38,2.38,0,0,1-1,.21,5.45,5.45,0,0,1-.95-.08l-1.14-.18c-.41-.07-.86-.13-1.34-.19a14.84,14.84,0,0,0-1.55-.08,13.36,13.36,0,0,0-1.61.1,13.18,13.18,0,0,0-1.79.31l-.14,0q.13-1.11.24-2.4c.07-.86.12-1.75.17-2.68s.08-1.87.12-2.84.05-1.94.07-2.91,0-1.92,0-2.86S262.44,108.47,262.44,107.59Z"/><path class="cls-1" d="M273.67,119.08a8,8,0,0,1,.18-1.67,8.5,8.5,0,0,1,.5-1.65,8,8,0,0,1,.83-1.49,5.77,5.77,0,0,1,1.14-1.22,5.15,5.15,0,0,1,1.44-.83,4.82,4.82,0,0,1,1.72-.3,3.83,3.83,0,0,1,1.85.44,4.09,4.09,0,0,1,1.35,1.16,5.23,5.23,0,0,1,.83,1.65,6.36,6.36,0,0,1,.28,1.89,8.6,8.6,0,0,1-.68,3.32,7.47,7.47,0,0,1-.83,1.49,6,6,0,0,1-1.14,1.22,5.15,5.15,0,0,1-1.44.83,4.82,4.82,0,0,1-1.72.3,3.8,3.8,0,0,1-1.85-.44,4.12,4.12,0,0,1-1.35-1.17A5.15,5.15,0,0,1,274,121,6.42,6.42,0,0,1,273.67,119.08Zm2-.77a8.56,8.56,0,0,0,.08,1.12,6.91,6.91,0,0,0,.27,1.11,6.33,6.33,0,0,0,.44,1,3.59,3.59,0,0,0,.63.8,2.78,2.78,0,0,0,.82.54,2.48,2.48,0,0,0,1,.2,2.1,2.1,0,0,0,1.05-.26,2.66,2.66,0,0,0,.78-.68,4,4,0,0,0,.55-1,8.84,8.84,0,0,0,.35-1.14,9.15,9.15,0,0,0,.18-1.15,9.92,9.92,0,0,0,.05-1.05,7.28,7.28,0,0,0-.08-1.14,6.68,6.68,0,0,0-.27-1.09,6.33,6.33,0,0,0-.44-1,3.59,3.59,0,0,0-.63-.8,3,3,0,0,0-.82-.53,2.48,2.48,0,0,0-1-.2,2.2,2.2,0,0,0-1,.25,2.66,2.66,0,0,0-.78.68,4.36,4.36,0,0,0-.55,1,8.7,8.7,0,0,0-.35,1.13,11.63,11.63,0,0,0-.18,1.16A9.92,9.92,0,0,0,275.63,118.31Z"/><path class="cls-1" d="M287,114.39a2.94,2.94,0,0,0-.05-.57.85.85,0,0,0-.15-.36.53.53,0,0,0-.26-.19,1,1,0,0,0-.37-.06,4.05,4.05,0,0,0-.7.08l-.93.22-.12-.59,1.11-.37,1-.29.79-.19a3.36,3.36,0,0,1,.54-.06,1,1,0,0,1,.74.28,1.44,1.44,0,0,1,.26,1s0,.18,0,.38,0,.45,0,.75,0,.66-.07,1-.06.82-.09,1.27-.08.9-.12,1.38-.09,1-.14,1.42h.05a22.66,22.66,0,0,1,1.33-3.55,12.4,12.4,0,0,1,1.45-2.36,5.18,5.18,0,0,1,1.46-1.3,2.84,2.84,0,0,1,1.39-.4,2.42,2.42,0,0,1,.88.17,2.08,2.08,0,0,1,.75.55,2.57,2.57,0,0,1,.53,1,4.56,4.56,0,0,1,.2,1.43q0,.24,0,.66c0,.27,0,.58-.07.92s-.06.69-.1,1.07l-.09,1.12c0,.36-.05.71-.07,1s0,.61,0,.86a7.37,7.37,0,0,0,.06,1,1.91,1.91,0,0,0,.17.63.68.68,0,0,0,.33.32,1.41,1.41,0,0,0,.5.08,3.51,3.51,0,0,0,.88-.12,4.44,4.44,0,0,0,.92-.33l.16.43a4.89,4.89,0,0,1-.75.48c-.3.16-.61.31-.94.45a6.65,6.65,0,0,1-1,.33,3.82,3.82,0,0,1-.87.13,1,1,0,0,1-.69-.24,1.4,1.4,0,0,1-.38-.64,4.34,4.34,0,0,1-.17-1c0-.37,0-.76,0-1.18s0-1,0-1.58.07-1.05.12-1.54.08-.94.12-1.34.05-.72.05-1a2.25,2.25,0,0,0-.36-1.41,1.17,1.17,0,0,0-1-.45,1.64,1.64,0,0,0-1,.4,5.28,5.28,0,0,0-1,1.1,10.42,10.42,0,0,0-1,1.65,17,17,0,0,0-.86,2.06,17.73,17.73,0,0,0-.64,2.31,16.72,16.72,0,0,0-.32,2.42l-1.7.21h-.13c0-.52.08-1.08.12-1.69s.07-1.23.1-1.86.07-1.25.09-1.87.05-1.19.07-1.73,0-1,0-1.44S287,114.63,287,114.39Z"/><path class="cls-1" d="M308.44,113.59a3.89,3.89,0,0,1,.58,1.2,4.74,4.74,0,0,1,.17,1.23,4.46,4.46,0,0,1-.18,1.26,5.15,5.15,0,0,1-1.27,2.18,5.15,5.15,0,0,1-1,.8,5,5,0,0,1-1.2.53,4.8,4.8,0,0,1-1.33.19l-.35,0-.37,0a2.12,2.12,0,0,0-.52.17,2.17,2.17,0,0,0-.42.27,1.19,1.19,0,0,0-.27.33.7.7,0,0,0-.1.36.78.78,0,0,0,.28.61,2.58,2.58,0,0,0,.76.44,7.27,7.27,0,0,0,1.1.33l1.3.29,1.21.27c.39.09.77.2,1.13.32a7,7,0,0,1,1,.42,3.6,3.6,0,0,1,.79.56,2.32,2.32,0,0,1,.71,1.75,3.5,3.5,0,0,1-.26,1.36,4.51,4.51,0,0,1-.72,1.23,6.19,6.19,0,0,1-1.11,1.05,7.83,7.83,0,0,1-1.42.81,8.14,8.14,0,0,1-1.65.52,8.36,8.36,0,0,1-1.81.19,9.25,9.25,0,0,1-1.14-.08,8,8,0,0,1-1.18-.24,7,7,0,0,1-1.1-.44,4.14,4.14,0,0,1-.93-.64,2.8,2.8,0,0,1-.64-.86,2.52,2.52,0,0,1-.24-1.12,3.1,3.1,0,0,1,.17-1,4.24,4.24,0,0,1,.46-.9,5.44,5.44,0,0,1,.68-.77,5.63,5.63,0,0,1,.81-.65,6.86,6.86,0,0,1,.87-.49,6.25,6.25,0,0,1,.86-.33l0,0a6.54,6.54,0,0,1-.59-.3,2.06,2.06,0,0,1-.52-.4,1.79,1.79,0,0,1-.38-.52,1.51,1.51,0,0,1-.14-.65,1.44,1.44,0,0,1,.19-.75,2.48,2.48,0,0,1,.48-.59,3.54,3.54,0,0,1,.65-.44,6,6,0,0,1,.68-.33,4.07,4.07,0,0,1-1.12-.63,4.31,4.31,0,0,1-.84-.87,4.08,4.08,0,0,1-.52-1.07,4,4,0,0,1-.18-1.2,4.62,4.62,0,0,1,.42-2,5,5,0,0,1,1.12-1.58,5.36,5.36,0,0,1,3.6-1.41,4,4,0,0,1,.72.06,4.43,4.43,0,0,1,.6.14,4.23,4.23,0,0,1,.51.19c.16.07.31.13.44.2l.61.27a1.85,1.85,0,0,0,.69.12,1.89,1.89,0,0,0,.63-.1,1.85,1.85,0,0,0,.53-.31,1.6,1.6,0,0,0,.36-.49,1.53,1.53,0,0,0,.14-.66.41.41,0,0,0,0-.11.45.45,0,0,0,0-.11l.11-.07a2,2,0,0,1,.83.65,1.31,1.31,0,0,1,.28.78,1.23,1.23,0,0,1-.12.55,1.25,1.25,0,0,1-.35.41,1.7,1.7,0,0,1-.54.26,2.38,2.38,0,0,1-.68.09,3.68,3.68,0,0,1-1.24-.23ZM303.07,125a4.39,4.39,0,0,0-1.1.45,4,4,0,0,0-.92.71,3.19,3.19,0,0,0-.63,1,2.89,2.89,0,0,0-.23,1.18,2.56,2.56,0,0,0,.34,1.35,3,3,0,0,0,.9.94,3.82,3.82,0,0,0,1.23.56,5.2,5.2,0,0,0,1.34.18,5.37,5.37,0,0,0,1.71-.27,4.93,4.93,0,0,0,1.44-.76,4,4,0,0,0,1-1.15,3,3,0,0,0,.36-1.45,1.49,1.49,0,0,0-.18-.75,1.82,1.82,0,0,0-.49-.55,3.31,3.31,0,0,0-.75-.4c-.29-.1-.6-.2-.95-.3s-.95-.24-1.46-.34S303.61,125.15,303.07,125Zm1.68-4.94a2.07,2.07,0,0,0,.8-.15,2.35,2.35,0,0,0,.63-.41,2.31,2.31,0,0,0,.47-.59,4.19,4.19,0,0,0,.33-.71,5,5,0,0,0,.24-1.5,5.79,5.79,0,0,0-.07-.92,4.69,4.69,0,0,0-.24-.89,3.79,3.79,0,0,0-.39-.81,3.26,3.26,0,0,0-.56-.66,2.68,2.68,0,0,0-.73-.44,2.36,2.36,0,0,0-.9-.16,2.47,2.47,0,0,0-.84.14,2.2,2.2,0,0,0-.66.4,2.48,2.48,0,0,0-.48.59,3,3,0,0,0-.33.7,4.13,4.13,0,0,0-.19.75,4.91,4.91,0,0,0-.06.74,5.82,5.82,0,0,0,.08.92,5.44,5.44,0,0,0,.25.9,4.19,4.19,0,0,0,.41.82,3.11,3.11,0,0,0,.58.67,2.58,2.58,0,0,0,.75.45A2.42,2.42,0,0,0,304.75,120.07Z"/><path class="cls-1" d="M319.83,121.25l.13.07a.67.67,0,0,1,.14.09l.11.12a.16.16,0,0,1,.05.12.14.14,0,0,1,0,.06,6.31,6.31,0,0,1-1,1.11,6.08,6.08,0,0,1-1.09.78,4.79,4.79,0,0,1-1.16.47,4.6,4.6,0,0,1-1.15.15,4,4,0,0,1-1.8-.4,4.31,4.31,0,0,1-1.41-1.1,5.28,5.28,0,0,1-.92-1.63,6,6,0,0,1-.33-2,8,8,0,0,1,.2-1.75A7.86,7.86,0,0,1,313,114.2a6,6,0,0,1,1.19-1.18,5.29,5.29,0,0,1,1.46-.79,5,5,0,0,1,1.71-.29,4,4,0,0,1,1.15.17,3,3,0,0,1,1,.47,2.38,2.38,0,0,1,.66.75,2.13,2.13,0,0,1,.24,1,2.16,2.16,0,0,1-.54,1.46,4.35,4.35,0,0,1-1.5,1,10.86,10.86,0,0,1-2.25.7,22.24,22.24,0,0,1-2.8.39v.14a6.34,6.34,0,0,0,.27,1.91,4.82,4.82,0,0,0,.73,1.49,3.53,3.53,0,0,0,1.09,1,2.92,2.92,0,0,0,1.36.34,3.58,3.58,0,0,0,1.51-.36A5.83,5.83,0,0,0,319.83,121.25Zm-1.54-6.56a2,2,0,0,0-.12-.7,1.82,1.82,0,0,0-.35-.57,1.6,1.6,0,0,0-.54-.38,1.64,1.64,0,0,0-.67-.14,2.32,2.32,0,0,0-1,.19,2.51,2.51,0,0,0-.78.51,3.19,3.19,0,0,0-.6.75,5.5,5.5,0,0,0-.45.91,6.63,6.63,0,0,0-.29,1,8.92,8.92,0,0,0-.17,1,14.29,14.29,0,0,0,2.08-.29,6.55,6.55,0,0,0,1.55-.51,2.72,2.72,0,0,0,1-.75A1.62,1.62,0,0,0,318.29,114.69Z"/><path class="cls-1" d="M322.92,124h-.13c0-.52.09-1.08.12-1.69s.08-1.23.11-1.86l.09-1.87c0-.61,0-1.19.06-1.73s0-1,0-1.44,0-.76,0-1a4.19,4.19,0,0,0,0-.53.9.9,0,0,0-.11-.36.54.54,0,0,0-.25-.22,1.1,1.1,0,0,0-.44-.07l-.29,0-.32,0-.41.09-.52.13-.12-.59a20.26,20.26,0,0,1,2.2-.69,6.48,6.48,0,0,1,1.13-.2.92.92,0,0,1,.78.31,1.61,1.61,0,0,1,.23.94s0,.15,0,.33,0,.43,0,.73,0,.64-.07,1-.06.81-.1,1.26-.07.92-.11,1.41-.09,1-.14,1.45h.08a29.35,29.35,0,0,1,.88-3,13.23,13.23,0,0,1,1.11-2.41,6.12,6.12,0,0,1,1.36-1.6,2.55,2.55,0,0,1,1.62-.59,1.81,1.81,0,0,1,.58.1,1.65,1.65,0,0,1,.47.27,1.43,1.43,0,0,1,.31.42,1.32,1.32,0,0,1,.11.53,1.56,1.56,0,0,1-.16.7,1.49,1.49,0,0,1-.5.6h-.07a2.62,2.62,0,0,0-.64-.41,1.78,1.78,0,0,0-.65-.12,1.87,1.87,0,0,0-.71.13,2.32,2.32,0,0,0-.63.4,4.8,4.8,0,0,0-.87,1.13,10.63,10.63,0,0,0-.73,1.55c-.22.56-.42,1.16-.6,1.78s-.33,1.23-.45,1.82-.24,1.15-.31,1.67-.14,1-.17,1.31Z"/><path class="cls-1" d="M337.73,119a2.4,2.4,0,0,0,0,.37c0,.12,0,.24,0,.36a4.33,4.33,0,0,0,.25,1.58,2.58,2.58,0,0,0,.71,1.06,2.82,2.82,0,0,0,1.11.59,5.45,5.45,0,0,0,1.46.18,5.15,5.15,0,0,0,1.53-.22,3.72,3.72,0,0,0,1.28-.67,3.35,3.35,0,0,0,.88-1.12,3.56,3.56,0,0,0,.32-1.54,3.31,3.31,0,0,0-.15-1,3.45,3.45,0,0,0-.41-.84A4.28,4.28,0,0,0,344,117a8.32,8.32,0,0,0-.79-.62c-.29-.19-.59-.37-.91-.55l-1-.54c-.34-.18-.69-.37-1-.57a9,9,0,0,1-1-.63,7.56,7.56,0,0,1-.87-.72,5.2,5.2,0,0,1-.69-.86,4.32,4.32,0,0,1-.45-1,4.18,4.18,0,0,1-.17-1.26,5.62,5.62,0,0,1,.22-1.62,5.48,5.48,0,0,1,.62-1.37,5.27,5.27,0,0,1,.94-1.11,5.9,5.9,0,0,1,1.21-.83,6.1,6.1,0,0,1,1.41-.52,7,7,0,0,1,1.53-.17,6.8,6.8,0,0,1,.76,0,7.39,7.39,0,0,1,.82.14,6.39,6.39,0,0,1,.78.22,3.36,3.36,0,0,1,.66.29,1.69,1.69,0,0,1,.46.35.67.67,0,0,1,.17.42c0,.16,0,.36,0,.59s0,.51,0,.81,0,.63,0,1,0,.73,0,1.13l-.83,0a5.43,5.43,0,0,0,0-.56,3.93,3.93,0,0,0-.24-1.43,2.83,2.83,0,0,0-.67-1,3,3,0,0,0-1.06-.62,4.19,4.19,0,0,0-1.37-.21,4,4,0,0,0-1.4.25,3.48,3.48,0,0,0-1.12.7,3.27,3.27,0,0,0-.74,1A3.32,3.32,0,0,0,339,109a3.61,3.61,0,0,0,.15,1.08,3.74,3.74,0,0,0,.43.9,4.16,4.16,0,0,0,.65.74,6.58,6.58,0,0,0,.82.63,10.45,10.45,0,0,0,.93.57l1,.54,1,.56c.34.19.67.39,1,.6a6.63,6.63,0,0,1,.86.71,4.68,4.68,0,0,1,.69.84,4.1,4.1,0,0,1,.45,1,4.3,4.3,0,0,1,.17,1.23,5.76,5.76,0,0,1-.31,2,5,5,0,0,1-2,2.59,6.45,6.45,0,0,1-1.38.71,7.7,7.7,0,0,1-1.44.39,8.1,8.1,0,0,1-1.33.12,10.45,10.45,0,0,1-1.52-.11,8.14,8.14,0,0,1-1.24-.29,3.21,3.21,0,0,1-.85-.41.65.65,0,0,1-.3-.48c0-.37,0-.89,0-1.57s.06-1.49.11-2.43Z"/><path class="cls-1" d="M352.87,106.12c-.23,1-.42,2.1-.58,3.21s-.29,2.19-.4,3.26l.75,0,.68,0h1a6.76,6.76,0,0,0,1.22-.09c0,.09,0,.17.06.25a.88.88,0,0,1,0,.21.45.45,0,0,1-.3.47,2.72,2.72,0,0,1-.86.11c-.36,0-.76,0-1.21-.07l-1.46-.12c-.06.58-.11,1.15-.15,1.7s-.07,1.07-.09,1.56-.05,1-.06,1.37,0,.78,0,1.09a12,12,0,0,0,.09,1.56,4,4,0,0,0,.31,1.17,1.66,1.66,0,0,0,1.65,1,3.38,3.38,0,0,0,1-.16,7.33,7.33,0,0,0,1.24-.49.85.85,0,0,1,.25.54q-.51.33-1,.6a8.25,8.25,0,0,1-1,.47,7.2,7.2,0,0,1-1,.31,4,4,0,0,1-.88.1,2.35,2.35,0,0,1-1-.2,1.81,1.81,0,0,1-.78-.71,4.31,4.31,0,0,1-.52-1.37,11.08,11.08,0,0,1-.18-2.19c0-.5,0-1,0-1.53s0-1.06.07-1.6.06-1.08.1-1.62.1-1.07.15-1.59c-.43,0-.83,0-1.2,0a5.45,5.45,0,0,0-.94.15.25.25,0,0,1,0-.12.43.43,0,0,1,.16-.32,1.71,1.71,0,0,1,.47-.27,3.14,3.14,0,0,1,.71-.21,8,8,0,0,1,.92-.11c.12-1.14.26-2.22.4-3.23s.28-1.92.42-2.71a.76.76,0,0,1,.16-.35.65.65,0,0,1,.25-.22,1,1,0,0,1,.32-.12l.34,0a1.75,1.75,0,0,1,.48.06A1.84,1.84,0,0,1,352.87,106.12Z"/><path class="cls-1" d="M357.19,124h-.13c0-.52.07-1.08.11-1.7s.07-1.26.1-1.92.06-1.35.08-2,0-1.37.06-2,0-1.29,0-1.89,0-1.17,0-1.67a.68.68,0,0,1,.11-.4.77.77,0,0,1,.26-.25,1,1,0,0,1,.34-.12l.32,0a1.91,1.91,0,0,1,.56.07,2.3,2.3,0,0,1,.5.18c-.08.42-.15.91-.21,1.46s-.12,1.15-.17,1.78-.12,1.29-.17,2-.11,1.37-.16,2.06H359a29.35,29.35,0,0,1,.88-3,13.23,13.23,0,0,1,1.11-2.41,5.93,5.93,0,0,1,1.36-1.6,2.55,2.55,0,0,1,1.62-.59,1.62,1.62,0,0,1,1.05.37,1.43,1.43,0,0,1,.31.42,1.32,1.32,0,0,1,.11.53,1.56,1.56,0,0,1-.16.7,1.58,1.58,0,0,1-.5.6h-.07a2.67,2.67,0,0,0-.65-.41,1.75,1.75,0,0,0-.65-.12,1.94,1.94,0,0,0-.71.13,2.43,2.43,0,0,0-.62.4,4.55,4.55,0,0,0-.87,1.13,10.63,10.63,0,0,0-.73,1.55c-.22.56-.42,1.16-.6,1.78s-.33,1.23-.46,1.82-.23,1.15-.31,1.67-.13,1-.16,1.31Z"/><path class="cls-1" d="M372.08,115.38a2.76,2.76,0,0,0-.22-1.12,2.2,2.2,0,0,0-.55-.77,2.34,2.34,0,0,0-.78-.45,2.64,2.64,0,0,0-.86-.15,3.4,3.4,0,0,0-1,.12,1.73,1.73,0,0,0-.65.34,1.17,1.17,0,0,0-.36.5,1.61,1.61,0,0,0-.11.63,2.14,2.14,0,0,0,.14.78,3.29,3.29,0,0,0,.42.78l0,.09a2.15,2.15,0,0,1-.94.22,1.46,1.46,0,0,1-.52-.08,1.27,1.27,0,0,1-.42-.25,1.13,1.13,0,0,1-.27-.4,1.32,1.32,0,0,1-.11-.53,1.85,1.85,0,0,1,.24-.91,3,3,0,0,1,.61-.77,4.45,4.45,0,0,1,.89-.63,6.13,6.13,0,0,1,1.05-.47,7.25,7.25,0,0,1,1.08-.3,6.27,6.27,0,0,1,1-.1,4.28,4.28,0,0,1,1.47.23,2.36,2.36,0,0,1,1,.66,2.77,2.77,0,0,1,.56,1.06,5.14,5.14,0,0,1,.17,1.41c0,.36,0,.75,0,1.18s-.06.88-.1,1.35-.07,1-.1,1.46-.05,1-.05,1.5a2.94,2.94,0,0,0,.44,1.76,1.35,1.35,0,0,0,1.15.6,2.83,2.83,0,0,0,1.4-.47l.24.35a4.15,4.15,0,0,1-1.2.84,3.3,3.3,0,0,1-1.35.28,2.59,2.59,0,0,1-1-.18,2.21,2.21,0,0,1-.78-.53,2.45,2.45,0,0,1-.5-.9,3.92,3.92,0,0,1-.18-1.25c0-.14,0-.28,0-.42a3.87,3.87,0,0,1,.05-.45h-.05a10.8,10.8,0,0,1-.81,1.38,7.62,7.62,0,0,1-1,1.22,5,5,0,0,1-1.18.86,2.72,2.72,0,0,1-2.34.14,2.41,2.41,0,0,1-1.31-1.35,2.86,2.86,0,0,1-.18-1,3.21,3.21,0,0,1,.26-1.3,3.38,3.38,0,0,1,.74-1.06,4.27,4.27,0,0,1,1.12-.8,8.59,8.59,0,0,1,1.42-.57,11.18,11.18,0,0,1,1.63-.33,14.26,14.26,0,0,1,1.74-.11c0-.34.07-.68.1-1S372.08,115.77,372.08,115.38Zm-5,5.61a2.37,2.37,0,0,0,.07.61,1.68,1.68,0,0,0,.22.51,1.16,1.16,0,0,0,.38.35,1.25,1.25,0,0,0,.56.13,1.8,1.8,0,0,0,.76-.18,3.6,3.6,0,0,0,.78-.47,4.9,4.9,0,0,0,.72-.72,6.78,6.78,0,0,0,.63-.92,6.18,6.18,0,0,0,.46-1,5.55,5.55,0,0,0,.24-1.13c-.4,0-.8,0-1.2.08a7.6,7.6,0,0,0-1.13.19,4.8,4.8,0,0,0-1,.34,2.8,2.8,0,0,0-.79.53,2.16,2.16,0,0,0-.52.74A2.4,2.4,0,0,0,367.06,121Z"/><path class="cls-1" d="M378.58,114.39a2.94,2.94,0,0,0-.05-.57.85.85,0,0,0-.15-.36.49.49,0,0,0-.26-.19,1,1,0,0,0-.37-.06,4.16,4.16,0,0,0-.7.08l-.93.22-.12-.59,1.11-.37,1-.29.79-.19a3.36,3.36,0,0,1,.54-.06,1,1,0,0,1,.74.28,1.39,1.39,0,0,1,.26,1s0,.18,0,.38,0,.45-.05.75,0,.66-.07,1-.06.82-.09,1.27-.08.9-.12,1.38-.09,1-.14,1.42H380a22.66,22.66,0,0,1,1.33-3.55,12.93,12.93,0,0,1,1.45-2.36,5.18,5.18,0,0,1,1.46-1.3,2.84,2.84,0,0,1,1.39-.4,2.42,2.42,0,0,1,.88.17,2.2,2.2,0,0,1,.76.55,2.71,2.71,0,0,1,.52,1A4.56,4.56,0,0,1,388,115q0,.24,0,.66c0,.27,0,.58-.07.92s-.06.69-.09,1.07-.07.75-.1,1.12-.05.71-.07,1,0,.61,0,.86a7.37,7.37,0,0,0,.06,1,1.91,1.91,0,0,0,.17.63.68.68,0,0,0,.33.32,1.46,1.46,0,0,0,.5.08,3.45,3.45,0,0,0,.88-.12,4.44,4.44,0,0,0,.92-.33l.16.43a4.89,4.89,0,0,1-.75.48,10.26,10.26,0,0,1-.94.45,6.65,6.65,0,0,1-1,.33,3.82,3.82,0,0,1-.87.13,1,1,0,0,1-.69-.24,1.4,1.4,0,0,1-.38-.64,4.34,4.34,0,0,1-.17-1c0-.37,0-.76,0-1.18s0-1,.05-1.58.08-1.05.12-1.54.08-.94.12-1.34,0-.72,0-1a2.25,2.25,0,0,0-.36-1.41,1.16,1.16,0,0,0-1-.45,1.65,1.65,0,0,0-1,.4,5.28,5.28,0,0,0-1,1.1,10.42,10.42,0,0,0-1,1.65,17,17,0,0,0-.86,2.06,17.73,17.73,0,0,0-.64,2.31,16.72,16.72,0,0,0-.32,2.42l-1.7.21h-.13c0-.52.08-1.08.12-1.69s.07-1.23.11-1.86.06-1.25.08-1.87.05-1.19.07-1.73,0-1,0-1.44S378.58,114.63,378.58,114.39Z"/><path class="cls-1" d="M400,113.59a3.89,3.89,0,0,1,.58,1.2,4.74,4.74,0,0,1,.17,1.23,4.46,4.46,0,0,1-.18,1.26,5.15,5.15,0,0,1-1.27,2.18,5.15,5.15,0,0,1-1,.8,5.09,5.09,0,0,1-1.19.53,4.93,4.93,0,0,1-1.34.19l-.35,0-.36,0a2.06,2.06,0,0,0-.53.17,2.08,2.08,0,0,0-.41.27,1.07,1.07,0,0,0-.28.33.7.7,0,0,0-.1.36.78.78,0,0,0,.28.61,2.58,2.58,0,0,0,.76.44,7.27,7.27,0,0,0,1.1.33l1.3.29,1.21.27c.39.09.77.2,1.13.32a7,7,0,0,1,1,.42,3.6,3.6,0,0,1,.79.56A2.32,2.32,0,0,1,402,127a3.5,3.5,0,0,1-.26,1.36,4.51,4.51,0,0,1-.72,1.23,6.19,6.19,0,0,1-1.11,1.05,7.83,7.83,0,0,1-1.42.81,8.14,8.14,0,0,1-1.65.52,8.36,8.36,0,0,1-1.81.19,9.25,9.25,0,0,1-1.14-.08,7.58,7.58,0,0,1-1.17-.24,6.75,6.75,0,0,1-1.11-.44,4.14,4.14,0,0,1-.93-.64,3,3,0,0,1-.64-.86,2.52,2.52,0,0,1-.24-1.12,3.1,3.1,0,0,1,.17-1,4.24,4.24,0,0,1,.46-.9,5.44,5.44,0,0,1,.68-.77,5.63,5.63,0,0,1,.81-.65,7.63,7.63,0,0,1,.87-.49,5.89,5.89,0,0,1,.87-.33v0a6.54,6.54,0,0,1-.59-.3,2.25,2.25,0,0,1-.52-.4,1.79,1.79,0,0,1-.38-.52,1.51,1.51,0,0,1-.14-.65,1.44,1.44,0,0,1,.19-.75,2.3,2.3,0,0,1,.49-.59,3.16,3.16,0,0,1,.64-.44,6,6,0,0,1,.68-.33A4.22,4.22,0,0,1,393,120a4.31,4.31,0,0,1-.84-.87,4.08,4.08,0,0,1-.52-1.07,4,4,0,0,1-.18-1.2,4.62,4.62,0,0,1,.42-2,5,5,0,0,1,1.12-1.58,5.36,5.36,0,0,1,1.64-1,5.22,5.22,0,0,1,2-.38,4,4,0,0,1,.72.06,4.43,4.43,0,0,1,.6.14,5.19,5.19,0,0,1,.52.19l.43.2.61.27a1.85,1.85,0,0,0,.69.12,1.89,1.89,0,0,0,.63-.1,1.85,1.85,0,0,0,.53-.31,1.6,1.6,0,0,0,.36-.49,1.53,1.53,0,0,0,.14-.66.41.41,0,0,0,0-.11.45.45,0,0,0,0-.11l.11-.07a2.1,2.1,0,0,1,.84.65,1.36,1.36,0,0,1,.27.78,1.23,1.23,0,0,1-.12.55,1.15,1.15,0,0,1-.35.41,1.7,1.7,0,0,1-.54.26,2.38,2.38,0,0,1-.68.09,3.59,3.59,0,0,1-1.23-.23ZM394.65,125a4.39,4.39,0,0,0-1.1.45,4.26,4.26,0,0,0-.92.71,3.4,3.4,0,0,0-.63,1,2.89,2.89,0,0,0-.23,1.18,2.56,2.56,0,0,0,.34,1.35,3,3,0,0,0,.9.94,3.82,3.82,0,0,0,1.23.56,5.2,5.2,0,0,0,1.34.18,5.37,5.37,0,0,0,1.71-.27,4.93,4.93,0,0,0,1.44-.76,3.83,3.83,0,0,0,1-1.15,3,3,0,0,0,.36-1.45,1.49,1.49,0,0,0-.18-.75,1.82,1.82,0,0,0-.49-.55,3.31,3.31,0,0,0-.75-.4c-.29-.1-.6-.2-.95-.3s-.95-.24-1.46-.34S395.19,125.15,394.65,125Zm1.68-4.94a2,2,0,0,0,.8-.15,2.21,2.21,0,0,0,.63-.41,2.11,2.11,0,0,0,.47-.59,3.53,3.53,0,0,0,.33-.71,6.49,6.49,0,0,0,.19-.76,4.91,4.91,0,0,0,.06-.74,5.82,5.82,0,0,0-.08-.92,5.54,5.54,0,0,0-.23-.89,4.36,4.36,0,0,0-.4-.81,3.26,3.26,0,0,0-.56-.66,2.54,2.54,0,0,0-.73-.44,2.36,2.36,0,0,0-.9-.16,2.47,2.47,0,0,0-.84.14,2.2,2.2,0,0,0-.66.4,2.48,2.48,0,0,0-.48.59,3,3,0,0,0-.33.7,5.15,5.15,0,0,0-.19.75,4.91,4.91,0,0,0-.06.74,5.82,5.82,0,0,0,.08.92,5.44,5.44,0,0,0,.25.9,4.19,4.19,0,0,0,.41.82,3.41,3.41,0,0,0,.58.67,2.58,2.58,0,0,0,.75.45A2.42,2.42,0,0,0,396.33,120.07Z"/><path class="cls-1" d="M411.41,121.25l.13.07a.67.67,0,0,1,.14.09l.12.12a.19.19,0,0,1,0,.12.07.07,0,0,1,0,.06,6.69,6.69,0,0,1-1,1.11,6.52,6.52,0,0,1-1.1.78,4.89,4.89,0,0,1-1.15.47,4.74,4.74,0,0,1-1.16.15,4,4,0,0,1-1.8-.4,4.31,4.31,0,0,1-1.41-1.1,5.06,5.06,0,0,1-.91-1.63,6,6,0,0,1-.33-2,8,8,0,0,1,.19-1.75,7.86,7.86,0,0,1,1.44-3.14A6,6,0,0,1,405.8,113a5.29,5.29,0,0,1,1.46-.79,5,5,0,0,1,1.71-.29,4,4,0,0,1,1.15.17,2.87,2.87,0,0,1,1,.47,2.16,2.16,0,0,1,.66.75,2.13,2.13,0,0,1,.24,1,2.16,2.16,0,0,1-.54,1.46,4.35,4.35,0,0,1-1.5,1,10.86,10.86,0,0,1-2.25.7,22.24,22.24,0,0,1-2.8.39v.14a6.34,6.34,0,0,0,.27,1.91,4.82,4.82,0,0,0,.73,1.49,3.45,3.45,0,0,0,1.1,1,2.85,2.85,0,0,0,1.35.34,3.58,3.58,0,0,0,1.51-.36A5.83,5.83,0,0,0,411.41,121.25Zm-1.53-6.56a2,2,0,0,0-.13-.7,1.82,1.82,0,0,0-.35-.57,1.6,1.6,0,0,0-.54-.38,1.64,1.64,0,0,0-.67-.14,2.32,2.32,0,0,0-1,.19,2.51,2.51,0,0,0-.78.51,3.47,3.47,0,0,0-.6.75,5.47,5.47,0,0,0-.44.91,5.65,5.65,0,0,0-.3,1,8.92,8.92,0,0,0-.17,1A14.29,14.29,0,0,0,407,117a6.55,6.55,0,0,0,1.55-.51,2.64,2.64,0,0,0,1-.75A1.63,1.63,0,0,0,409.88,114.69Z"/><path class="cls-1" d="M414.5,124h-.13c0-.52.09-1.08.12-1.69s.08-1.23.11-1.86l.09-1.87c0-.61,0-1.19.06-1.73s0-1,0-1.44,0-.76,0-1a4.19,4.19,0,0,0,0-.53.9.9,0,0,0-.11-.36.54.54,0,0,0-.25-.22,1.1,1.1,0,0,0-.44-.07l-.29,0-.32,0-.41.09-.52.13-.12-.59a20.26,20.26,0,0,1,2.2-.69,6.48,6.48,0,0,1,1.13-.2.92.92,0,0,1,.78.31,1.61,1.61,0,0,1,.23.94s0,.15,0,.33,0,.43,0,.73-.05.64-.07,1-.06.81-.1,1.26-.07.92-.11,1.41-.09,1-.14,1.45h.08a29.35,29.35,0,0,1,.88-3,13.23,13.23,0,0,1,1.11-2.41,6.12,6.12,0,0,1,1.36-1.6,2.55,2.55,0,0,1,1.62-.59,1.81,1.81,0,0,1,.58.1,1.65,1.65,0,0,1,.47.27,1.43,1.43,0,0,1,.31.42,1.32,1.32,0,0,1,.11.53,1.56,1.56,0,0,1-.16.7,1.49,1.49,0,0,1-.5.6H422a2.62,2.62,0,0,0-.64-.41,1.78,1.78,0,0,0-.65-.12,1.87,1.87,0,0,0-.71.13,2.32,2.32,0,0,0-.63.4,4.8,4.8,0,0,0-.87,1.13,11.78,11.78,0,0,0-.73,1.55c-.22.56-.42,1.16-.6,1.78s-.33,1.23-.45,1.82-.23,1.15-.31,1.67-.14,1-.17,1.31Z"/><path class="cls-1" d="M424.17,120.83a2.54,2.54,0,0,0,.33,1.07,2.48,2.48,0,0,0,.67.73,2.93,2.93,0,0,0,.89.43,3.61,3.61,0,0,0,1,.14,3,3,0,0,0,.86-.12,2.43,2.43,0,0,0,.74-.36,1.82,1.82,0,0,0,.51-.56,1.44,1.44,0,0,0,.19-.75,1.46,1.46,0,0,0-.2-.76,2.38,2.38,0,0,0-.55-.6,5.49,5.49,0,0,0-.8-.5l-.94-.46-.87-.41c-.29-.14-.57-.29-.85-.46a6.86,6.86,0,0,1-.76-.53,3.69,3.69,0,0,1-.62-.63,2.66,2.66,0,0,1-.42-.78,2.83,2.83,0,0,1-.15-1,2.66,2.66,0,0,1,.2-1,3.17,3.17,0,0,1,.53-.86,3.9,3.9,0,0,1,.79-.66,5,5,0,0,1,.95-.48,6.16,6.16,0,0,1,1-.29,6.27,6.27,0,0,1,1-.09,5.48,5.48,0,0,1,1.24.14,3.63,3.63,0,0,1,1,.42,2.18,2.18,0,0,1,.69.66,1.55,1.55,0,0,1,.26.89,1.49,1.49,0,0,1-.06.4,1.41,1.41,0,0,1-.22.42,1.5,1.5,0,0,1-.41.32,1.45,1.45,0,0,1-.62.14,2.68,2.68,0,0,1-.72-.11l0-.08a2.79,2.79,0,0,0,.17-.48,2,2,0,0,0,0-.41,1,1,0,0,0-.19-.63,1.43,1.43,0,0,0-.46-.42,2,2,0,0,0-.61-.24,3.11,3.11,0,0,0-.67-.07,3.35,3.35,0,0,0-1,.15,2.68,2.68,0,0,0-.77.41,1.89,1.89,0,0,0-.48.59,1.49,1.49,0,0,0-.17.68,1.4,1.4,0,0,0,.24.8,2.58,2.58,0,0,0,.63.65,5.53,5.53,0,0,0,.9.56c.34.18.7.35,1.07.53s.82.39,1.23.6a5.72,5.72,0,0,1,1.09.72,3.41,3.41,0,0,1,.78.92,2.37,2.37,0,0,1,.3,1.22,2.92,2.92,0,0,1-.37,1.49,3.51,3.51,0,0,1-1,1.11,5,5,0,0,1-1.43.68,6.12,6.12,0,0,1-1.67.23,5.42,5.42,0,0,1-.89-.07,5.33,5.33,0,0,1-.9-.19,6.65,6.65,0,0,1-.82-.32,3.79,3.79,0,0,1-.68-.44,2.13,2.13,0,0,1-.45-.56,1.39,1.39,0,0,1-.17-.67,1,1,0,0,1,.13-.54,1,1,0,0,1,.36-.36,2,2,0,0,1,.49-.21,2.7,2.7,0,0,1,.56-.08Z"/><path class="cls-2" d="M24.66,35.38a1,1,0,0,1-1.5.24c-4.18-3.7-8.3-4.77-12.26-3.18a12.79,12.79,0,0,0-4.32,3,1,1,0,0,1-1.45,0h0a1.55,1.55,0,0,1,0-2,14.93,14.93,0,0,1,5.07-3.51c3.26-1.31,8.31-1.69,14.25,3.57a1.55,1.55,0,0,1,.21,1.91Z"/><path class="cls-2" d="M55.71,35.38a1,1,0,0,1-1.51.24C50,31.92,45.91,30.85,42,32.44a12.69,12.69,0,0,0-4.32,3,1,1,0,0,1-1.45,0h0a1.55,1.55,0,0,1,0-2,14.93,14.93,0,0,1,5.07-3.51c3.25-1.31,8.31-1.69,14.25,3.57a1.55,1.55,0,0,1,.21,1.91Z"/><path class="cls-2" d="M15.29,57.26a2.07,2.07,0,0,1,2.85-.37c7.89,5.74,15.67,7.4,23.15,4.93a24.32,24.32,0,0,0,8.16-4.64,2.08,2.08,0,0,1,2.74,0h0a2.07,2.07,0,0,1,0,3.12,28.48,28.48,0,0,1-9.58,5.45c-6.15,2-15.7,2.62-26.92-5.54a2.07,2.07,0,0,1-.39-2.95Z"/></g></svg>