<?xml version="1.0" encoding="utf-8"?>
<!-- Generator: Adobe Illustrator 26.3.1, SVG Export Plug-In . SVG Version: 6.00 Build 0)  -->
<svg version="1.1" xmlns="http://www.w3.org/2000/svg" xmlns:xlink="http://www.w3.org/1999/xlink" x="0px" y="0px"
	 viewBox="0 0 750 500" style="enable-background:new 0 0 750 500;" xml:space="preserve">
<style type="text/css">
	.st0{fill:#E0E0E0;}
	.st1{fill:#FFFFFF;}
	.st2{display:none;}
	.st3{display:inline;fill:#F5F5F5;}
	.st4{fill:#FAFAFA;}
	.st5{fill:#263238;}
	.st6{fill:#EBEBEB;}
	.st7{fill:#F5F5F5;}
	.st8{fill:#0D2237;}
	.st9{fill:#FFBE9D;}
	.st10{fill:#EB996E;}
	.st11{fill:#455A64;}
	.st12{fill:#FF8E25;}
	.st13{fill:none;stroke:#4E585D;stroke-width:0.05;stroke-miterlimit:10;}
	.st14{opacity:0.1;}
	.st15{fill:#B78876;}
	.st16{fill:#AA6550;}
	.st17{opacity:0.3;}
	.st18{fill:#A36853;}
	.st19{fill:#8F5039;}
	.st20{fill:#000111;}
	.st21{fill:#FFAD9D;}
	.st22{opacity:0.2;}
	.st23{fill:#111111;}
	.st24{fill:#ED9482;}
</style>
<g id="Background_Complete">
	<g>
		<g>
			<g>
				<g>
					<path class="st0" d="M598.94,354.43c0-1.6-0.08-117.47-0.2-304.89l0.2,0.2c-146.01,0.02-338.07,0.04-547.8,0.06H51.1l0.26-0.26
						c-0.01,107.8-0.01,210.92-0.02,304.89l-0.24-0.24C371.93,354.33,596.73,354.43,598.94,354.43c-2.22,0-227.01,0.1-547.85,0.24
						l-0.24,0v-0.24c-0.01-93.97-0.01-197.09-0.02-304.89v-0.26h0.26h0.04c209.73,0.02,401.79,0.05,547.8,0.06h0.2l0,0.2
						C599.02,236.96,598.95,352.84,598.94,354.43z"/>
				</g>
			</g>
		</g>
		<g>
			<g>
				<g>
					<rect x="51.1" y="49.54" class="st0" width="547.85" height="23.35"/>
				</g>
			</g>
		</g>
		<g>
			<g>
				<g>
					<path class="st1" d="M68.99,60.52c0,2.08-1.69,3.77-3.77,3.77c-2.08,0-3.77-1.69-3.77-3.77c0-2.08,1.69-3.77,3.77-3.77
						C67.31,56.75,68.99,58.44,68.99,60.52z"/>
				</g>
			</g>
			<g>
				<g>
					<path class="st1" d="M80.64,60.52c0,2.08-1.69,3.77-3.77,3.77s-3.77-1.69-3.77-3.77c0-2.08,1.69-3.77,3.77-3.77
						S80.64,58.44,80.64,60.52z"/>
				</g>
			</g>
			<g>
				<g>
					<path class="st1" d="M92.3,60.52c0,2.08-1.69,3.77-3.77,3.77c-2.08,0-3.77-1.69-3.77-3.77c0-2.08,1.69-3.77,3.77-3.77
						C90.61,56.75,92.3,58.44,92.3,60.52z"/>
				</g>
			</g>
		</g>
	</g>
</g>
<g id="Background_Simple" class="st2">
	<path class="st3" d="M178.32,368.3c124.31,41.56,269.63,21.36,318.34,15.26s96.43-26.6,130.53-61.92
		c39.49-40.91,58.2-99.74,54.46-156.47c-1.92-29.19-9.76-58.65-27.01-82.28c-24.58-33.68-66.71-52.22-108.4-53.23
		s-82.68,14.12-117.39,37.22c-27.52,18.32-52.05,41.84-82.64,54.37c-41.24,16.9-87.64,11.67-132.2,10.9
		c-44.56-0.77-93.59,5.21-124.16,37.65c-22.33,23.7-30.64,58.99-23.95,90.86c6.7,31.87,27.44,59.99,54.37,78.29L178.32,368.3z"/>
</g>
<g id="Window">
	<g>
		<g>
			<g>
				<g>
					<rect x="92.17" y="96.12" class="st4" width="554.08" height="369.38"/>
				</g>
			</g>
			<g>
				<g>
					<g>
						<g>
							<rect x="92.17" y="96.12" class="st5" width="554.08" height="23.61"/>
						</g>
					</g>
					<g>
						<g>
							<g>
								<path class="st5" d="M646.25,119.73c0-0.48-0.02-7.45-0.07-23.61l0.07,0.07c-65.62,0.02-289,0.1-554.05,0.19h-0.03
									l0.26-0.26c0,8.09,0,16.14,0,23.61l-0.26-0.26C400.56,119.62,643.44,119.73,646.25,119.73c-2.8,0-245.69,0.12-554.08,0.26
									l-0.26,0v-0.26c0-7.47,0-15.52,0-23.61v-0.26h0.26h0.03c265.05,0.09,488.42,0.17,554.05,0.19h0.07l0,0.07
									C646.27,112.28,646.25,119.25,646.25,119.73z"/>
							</g>
						</g>
					</g>
				</g>
			</g>
			<g>
				<g>
					<g>
						<path class="st0" d="M110.27,107.22c0,2.1-1.71,3.81-3.81,3.81c-2.1,0-3.81-1.71-3.81-3.81c0-2.1,1.71-3.81,3.81-3.81
							C108.56,103.41,110.27,105.12,110.27,107.22z"/>
					</g>
				</g>
				<g>
					<g>
						<path class="st0" d="M122.05,107.22c0,2.1-1.71,3.81-3.81,3.81c-2.1,0-3.81-1.71-3.81-3.81c0-2.1,1.71-3.81,3.81-3.81
							C120.35,103.41,122.05,105.12,122.05,107.22z"/>
					</g>
				</g>
				<g>
					<g>
						<path class="st0" d="M133.84,107.22c0,2.1-1.71,3.81-3.81,3.81c-2.1,0-3.81-1.71-3.81-3.81c0-2.1,1.71-3.81,3.81-3.81
							C132.13,103.41,133.84,105.12,133.84,107.22z"/>
					</g>
				</g>
			</g>
		</g>
		<g>
			<g>
				<path class="st6" d="M582.26,465.47c-21.39-22.52-52.77-33.46-83.83-33.25c-22.67,0.15-46.33,6.92-67.41-1.44
					c-19.5-7.74-31.88-26.53-47.06-41.01c-23.26-22.2-55.2-35.05-87.35-35.14c-21.82-0.07-45.84,4.94-63.84-7.4
					c-12.15-8.33-18.36-22.68-26.88-34.69c-25-35.21-73.13-49.89-113.41-34.33l-0.06,187.03L582.26,465.47z"/>
			</g>
		</g>
		<g>
			<g>
				<g>
					<path class="st5" d="M646.25,465.5c0-1.7-0.08-144.19-0.21-369.38l0.21,0.21c-152.53,0.01-345.19,0.03-554.03,0.05h-0.04
						l0.26-0.26c-0.01,131.55-0.02,256.66-0.02,369.38l-0.24-0.24C418.56,465.4,644.11,465.5,646.25,465.5
						c-2.13,0-227.68,0.1-554.08,0.24l-0.24,0v-0.24c-0.01-112.72-0.01-237.83-0.02-369.38v-0.26h0.26h0.04
						c208.84,0.02,401.5,0.04,554.03,0.05h0.21l0,0.21C646.33,321.31,646.25,463.8,646.25,465.5z"/>
				</g>
			</g>
		</g>
		<g>
			<g>
				<g>
					<g>
						<g>
							<g>
								<path class="st5" d="M161.58,176.92c0,0.37-2.73,0.67-6.09,0.67c-3.36,0-6.09-0.3-6.09-0.67c0-0.37,2.73-0.67,6.09-0.67
									C158.86,176.25,161.58,176.55,161.58,176.92z"/>
							</g>
						</g>
					</g>
					<g>
						<g>
							<g>
								<path class="st5" d="M168.05,160.36c0.37,0,0.67,2.77,0.67,6.18c0,3.41-0.3,6.18-0.67,6.18c-0.37,0-0.67-2.77-0.67-6.18
									C167.38,163.12,167.68,160.36,168.05,160.36z"/>
							</g>
						</g>
					</g>
				</g>
				<g>
					<g>
						<g>
							<g>
								<path class="st5" d="M174.94,176.53c0-0.37,2.73-0.67,6.09-0.67c3.36,0,6.09,0.3,6.09,0.67c0,0.37-2.73,0.67-6.09,0.67
									C177.66,177.2,174.94,176.9,174.94,176.53z"/>
							</g>
						</g>
					</g>
					<g>
						<g>
							<g>
								<path class="st5" d="M168.47,193.09c-0.37,0-0.67-2.77-0.67-6.18c0-3.41,0.3-6.18,0.67-6.18c0.37,0,0.67,2.77,0.67,6.18
									C169.14,190.32,168.84,193.09,168.47,193.09z"/>
							</g>
						</g>
					</g>
				</g>
				<g>
					<g>
						<g>
							<path class="st5" d="M178.31,185.99c-0.29,0.24-1.49-0.73-2.68-2.16c-1.2-1.43-1.93-2.79-1.65-3.02
								c0.29-0.24,1.49,0.73,2.68,2.16C177.86,184.39,178.6,185.75,178.31,185.99z"/>
						</g>
					</g>
				</g>
				<g>
					<g>
						<g>
							<path class="st5" d="M177.74,167.2c0.26,0.26-0.53,1.49-1.77,2.74c-1.24,1.25-2.46,2.06-2.73,1.79
								c-0.26-0.26,0.53-1.49,1.77-2.74C176.26,167.74,177.48,166.94,177.74,167.2z"/>
						</g>
					</g>
				</g>
				<g>
					<g>
						<g>
							<path class="st5" d="M163.78,171.99c-0.24,0.29-1.39-0.28-2.57-1.26c-1.18-0.98-1.95-2.01-1.71-2.3
								c0.24-0.29,1.39,0.28,2.57,1.26C163.26,170.67,164.02,171.7,163.78,171.99z"/>
						</g>
					</g>
				</g>
				<g>
					<g>
						<g>
							<path class="st5" d="M163.24,180.26c0.28,0.25-0.42,1.46-1.54,2.69c-1.13,1.24-2.26,2.04-2.54,1.79
								c-0.27-0.25,0.42-1.46,1.54-2.69C161.83,180.81,162.96,180.01,163.24,180.26z"/>
						</g>
					</g>
				</g>
			</g>
			<g>
				<g>
					<g>
						<g>
							<g>
								<path class="st5" d="M505.18,144.87c0,0.21-1.55,0.38-3.46,0.38c-1.91,0-3.46-0.17-3.46-0.38c0-0.21,1.55-0.38,3.46-0.38
									C503.63,144.49,505.18,144.66,505.18,144.87z"/>
							</g>
						</g>
					</g>
					<g>
						<g>
							<g>
								<path class="st5" d="M508.85,135.47c0.21,0,0.38,1.57,0.38,3.51c0,1.94-0.17,3.51-0.38,3.51c-0.21,0-0.38-1.57-0.38-3.51
									C508.47,137.04,508.64,135.47,508.85,135.47z"/>
							</g>
						</g>
					</g>
				</g>
				<g>
					<g>
						<g>
							<g>
								<path class="st5" d="M512.76,144.64c0-0.21,1.55-0.38,3.46-0.38c1.91,0,3.46,0.17,3.46,0.38s-1.55,0.38-3.46,0.38
									C514.31,145.03,512.76,144.86,512.76,144.64z"/>
							</g>
						</g>
					</g>
					<g>
						<g>
							<g>
								<path class="st5" d="M509.09,154.05c-0.21,0-0.38-1.57-0.38-3.51c0-1.94,0.17-3.51,0.38-3.51c0.21,0,0.38,1.57,0.38,3.51
									C509.47,152.48,509.3,154.05,509.09,154.05z"/>
							</g>
						</g>
					</g>
				</g>
				<g>
					<g>
						<g>
							<path class="st5" d="M514.68,150.02c-0.16,0.14-0.84-0.41-1.52-1.23c-0.68-0.81-1.1-1.58-0.94-1.72
								c0.16-0.14,0.84,0.41,1.52,1.23C514.42,149.11,514.84,149.88,514.68,150.02z"/>
						</g>
					</g>
				</g>
				<g>
					<g>
						<g>
							<path class="st5" d="M514.35,139.35c0.15,0.15-0.3,0.85-1,1.56c-0.71,0.71-1.4,1.17-1.55,1.02c-0.15-0.15,0.3-0.85,1-1.56
								C513.51,139.66,514.2,139.2,514.35,139.35z"/>
						</g>
					</g>
				</g>
				<g>
					<g>
						<g>
							<path class="st5" d="M506.43,142.07c-0.14,0.16-0.79-0.16-1.46-0.72c-0.67-0.56-1.11-1.14-0.97-1.3
								c0.14-0.16,0.79,0.16,1.46,0.72C506.13,141.32,506.56,141.91,506.43,142.07z"/>
						</g>
					</g>
				</g>
				<g>
					<g>
						<g>
							<path class="st5" d="M506.12,146.77c0.16,0.14-0.24,0.83-0.88,1.53c-0.64,0.7-1.28,1.16-1.44,1.01
								c-0.16-0.14,0.24-0.83,0.88-1.53C505.32,147.08,505.96,146.63,506.12,146.77z"/>
						</g>
					</g>
				</g>
			</g>
			<g>
				<g>
					<g>
						<g>
							<g>
								<path class="st5" d="M348.13,223.53c0,0.16-1.19,0.29-2.65,0.29c-1.46,0-2.65-0.13-2.65-0.29c0-0.16,1.19-0.29,2.65-0.29
									C346.95,223.23,348.13,223.36,348.13,223.53z"/>
							</g>
						</g>
					</g>
					<g>
						<g>
							<g>
								<path class="st5" d="M350.95,216.32c0.16,0,0.29,1.2,0.29,2.69c0,1.49-0.13,2.69-0.29,2.69c-0.16,0-0.29-1.2-0.29-2.69
									C350.65,217.52,350.79,216.32,350.95,216.32z"/>
							</g>
						</g>
					</g>
				</g>
				<g>
					<g>
						<g>
							<g>
								<path class="st5" d="M353.94,223.35c0-0.16,1.19-0.29,2.65-0.29c1.46,0,2.65,0.13,2.65,0.29c0,0.16-1.19,0.29-2.65,0.29
									C355.13,223.65,353.94,223.52,353.94,223.35z"/>
							</g>
						</g>
					</g>
					<g>
						<g>
							<g>
								<path class="st5" d="M351.13,230.56c-0.16,0-0.29-1.2-0.29-2.69c0-1.49,0.13-2.69,0.29-2.69c0.16,0,0.29,1.2,0.29,2.69
									C351.42,229.36,351.29,230.56,351.13,230.56z"/>
							</g>
						</g>
					</g>
				</g>
				<g>
					<g>
						<g>
							<path class="st5" d="M355.41,227.47c-0.12,0.1-0.65-0.32-1.17-0.94c-0.52-0.62-0.84-1.21-0.72-1.32
								c0.12-0.1,0.65,0.32,1.17,0.94C355.22,226.78,355.54,227.37,355.41,227.47z"/>
						</g>
					</g>
				</g>
				<g>
					<g>
						<g>
							<path class="st5" d="M355.17,219.29c0.11,0.11-0.23,0.65-0.77,1.19c-0.54,0.55-1.07,0.89-1.19,0.78
								c-0.11-0.11,0.23-0.65,0.77-1.19C354.52,219.53,355.05,219.18,355.17,219.29z"/>
						</g>
					</g>
				</g>
				<g>
					<g>
						<g>
							<path class="st5" d="M349.09,221.38c-0.1,0.12-0.6-0.12-1.12-0.55c-0.51-0.43-0.85-0.88-0.74-1c0.1-0.12,0.6,0.12,1.12,0.55
								C348.86,220.81,349.19,221.25,349.09,221.38z"/>
						</g>
					</g>
				</g>
				<g>
					<g>
						<g>
							<path class="st5" d="M348.85,224.98c0.12,0.11-0.18,0.63-0.67,1.17c-0.49,0.54-0.98,0.89-1.1,0.78
								c-0.12-0.11,0.18-0.63,0.67-1.17C348.24,225.22,348.73,224.87,348.85,224.98z"/>
						</g>
					</g>
				</g>
			</g>
			<g>
				<g>
					<g>
						<g>
							<g>
								<path class="st0" d="M488.92,234.74c0,0.21-1.55,0.38-3.46,0.38c-1.91,0-3.46-0.17-3.46-0.38c0-0.21,1.55-0.38,3.46-0.38
									C487.37,234.35,488.92,234.52,488.92,234.74z"/>
							</g>
						</g>
					</g>
					<g>
						<g>
							<g>
								<path class="st0" d="M492.59,225.33c0.21,0,0.38,1.57,0.38,3.51c0,1.94-0.17,3.51-0.38,3.51c-0.21,0-0.38-1.57-0.38-3.51
									C492.21,226.9,492.38,225.33,492.59,225.33z"/>
							</g>
						</g>
					</g>
				</g>
				<g>
					<g>
						<g>
							<g>
								<path class="st0" d="M496.5,234.51c0-0.21,1.55-0.38,3.46-0.38c1.91,0,3.46,0.17,3.46,0.38c0,0.21-1.55,0.38-3.46,0.38
									C498.05,234.89,496.5,234.72,496.5,234.51z"/>
							</g>
						</g>
					</g>
					<g>
						<g>
							<g>
								<path class="st0" d="M492.83,243.92c-0.21,0-0.38-1.57-0.38-3.51c0-1.94,0.17-3.51,0.38-3.51c0.21,0,0.38,1.57,0.38,3.51
									C493.21,242.34,493.04,243.92,492.83,243.92z"/>
							</g>
						</g>
					</g>
				</g>
				<g>
					<g>
						<g>
							<path class="st0" d="M498.42,239.88c-0.16,0.14-0.84-0.41-1.52-1.23c-0.68-0.81-1.1-1.58-0.94-1.72
								c0.16-0.14,0.84,0.41,1.52,1.23C498.16,238.98,498.58,239.75,498.42,239.88z"/>
						</g>
					</g>
				</g>
				<g>
					<g>
						<g>
							<path class="st0" d="M498.09,229.22c0.15,0.15-0.3,0.85-1,1.56c-0.7,0.71-1.4,1.17-1.55,1.02c-0.15-0.15,0.3-0.85,1-1.56
								C497.25,229.52,497.94,229.07,498.09,229.22z"/>
						</g>
					</g>
				</g>
				<g>
					<g>
						<g>
							<path class="st0" d="M490.17,231.93c-0.14,0.16-0.79-0.16-1.46-0.72c-0.67-0.56-1.11-1.14-0.97-1.3
								c0.13-0.16,0.79,0.16,1.46,0.72C489.87,231.19,490.3,231.77,490.17,231.93z"/>
						</g>
					</g>
				</g>
				<g>
					<g>
						<g>
							<path class="st0" d="M489.86,236.63c0.16,0.14-0.24,0.83-0.88,1.53c-0.64,0.7-1.28,1.16-1.44,1.01
								c-0.16-0.14,0.24-0.83,0.88-1.53C489.06,236.95,489.7,236.49,489.86,236.63z"/>
						</g>
					</g>
				</g>
			</g>
			<g>
				<g>
					<path class="st0" d="M306.68,145.48l0.45,1.08c0.79,1.88,2.29,3.38,4.18,4.15l1.17,0.48l-1.13,0.46
						c-1.92,0.78-3.44,2.3-4.22,4.22l-0.32,0.79l-0.47-0.99c-0.86-1.8-2.4-3.19-4.27-3.87l-1.02-0.37l1.34-0.65
						c1.68-0.81,3.01-2.22,3.72-3.94L306.68,145.48z"/>
				</g>
			</g>
			<g>
				<g>
					<path class="st0" d="M131.05,226.4l0.3,0.72c0.52,1.25,1.52,2.24,2.78,2.75l0.78,0.32l-0.75,0.3c-1.28,0.52-2.29,1.53-2.8,2.81
						l-0.21,0.52l-0.32-0.66c-0.57-1.2-1.59-2.12-2.84-2.57l-0.68-0.25l0.89-0.43c1.12-0.54,2-1.47,2.47-2.62L131.05,226.4z"/>
				</g>
			</g>
			<g>
				<g>
					<path class="st0" d="M573.6,156.64l0.3,0.72c0.52,1.25,1.52,2.24,2.78,2.75l0.78,0.32l-0.75,0.3c-1.28,0.52-2.29,1.53-2.8,2.81
						l-0.21,0.52l-0.32-0.66c-0.57-1.2-1.59-2.12-2.84-2.57l-0.68-0.25l0.89-0.43c1.12-0.54,2-1.47,2.47-2.62L573.6,156.64z"/>
				</g>
			</g>
			<g>
				<g>
					<path class="st5" d="M574.93,186.95l0.45,1.08c0.78,1.88,2.29,3.38,4.18,4.15l1.17,0.48l-1.13,0.46
						c-1.92,0.78-3.44,2.3-4.22,4.22l-0.32,0.79l-0.47-0.99c-0.86-1.8-2.4-3.19-4.27-3.87l-1.02-0.37l1.34-0.65
						c1.68-0.81,3.01-2.22,3.72-3.94L574.93,186.95z"/>
				</g>
			</g>
			<g>
				<g>
					<path class="st5" d="M390.16,138.93l0.21,0.51c0.37,0.88,1.07,1.58,1.96,1.94l0.55,0.22l-0.53,0.21
						c-0.9,0.37-1.61,1.08-1.98,1.98l-0.15,0.37l-0.22-0.46c-0.41-0.84-1.12-1.5-2-1.82l-0.48-0.17l0.63-0.3
						c0.79-0.38,1.41-1.04,1.75-1.85L390.16,138.93z"/>
				</g>
			</g>
			<g>
				<g>
					<path class="st5" d="M250.76,221.83l0.27,0.65c0.47,1.14,1.38,2.04,2.53,2.5l0.71,0.29l-0.68,0.28
						c-1.16,0.47-2.08,1.39-2.55,2.55l-0.19,0.48l-0.29-0.6c-0.52-1.09-1.45-1.92-2.58-2.34l-0.62-0.23l0.81-0.39
						c1.01-0.49,1.82-1.34,2.25-2.38L250.76,221.83z"/>
				</g>
			</g>
		</g>
	</g>
</g>
<g id="Speech_Bubble">
	<g>
		<g>
			<g>
				<path class="st7" d="M655.32,196.59c-23.47,0-42.5,19.03-42.5,42.5c0,12.2,5.15,23.19,13.38,30.94l-5.74,20.1l20.29-11.1
					c4.54,1.66,9.45,2.56,14.56,2.56c23.47,0,42.5-19.03,42.5-42.5C697.82,215.62,678.79,196.59,655.32,196.59z"/>
			</g>
		</g>
		<g>
			<g>
				<g>
					<path class="st5" d="M655.32,196.59c0,0,0.26,0,0.76,0.01c0.52,0.02,1.26,0.05,2.23,0.09c0.49,0.03,1.04,0.02,1.64,0.1
						c0.6,0.09,1.25,0.18,1.96,0.29c0.71,0.12,1.48,0.19,2.28,0.37c0.8,0.2,1.65,0.42,2.56,0.64c3.57,1.01,7.91,2.62,12.32,5.58
						c4.41,2.92,8.9,7.16,12.43,12.84c0.43,0.71,0.87,1.43,1.32,2.16c0.37,0.77,0.75,1.54,1.14,2.33c0.83,1.54,1.34,3.26,2,4.96
						c1.04,3.48,1.9,7.21,1.99,11.15c0.19,1.96-0.01,3.96-0.1,5.98c-0.08,1.01-0.28,2.02-0.42,3.04c-0.08,0.51-0.16,1.02-0.23,1.53
						c-0.13,0.5-0.26,1.01-0.38,1.52c-0.91,4.09-2.61,8.11-4.88,11.89c-4.45,7.63-11.8,14.06-20.71,17.69
						c-4.44,1.85-9.32,2.84-14.28,3.01c-4.96,0.29-10.04-0.45-14.89-2.02c-0.46-0.16-0.93-0.32-1.39-0.48l0.21-0.02
						c-6.93,3.79-13.72,7.5-20.3,11.1l-0.54,0.29l0.17-0.59c1.98-6.93,3.9-13.65,5.74-20.1l0.07,0.25
						c-2.68-2.56-5.02-5.39-6.92-8.42c-1.89-3.03-3.37-6.23-4.44-9.48c-1.05-3.26-1.68-6.57-1.93-9.81
						c-0.08-0.81-0.11-1.62-0.12-2.42c-0.04-0.8,0-1.6,0.05-2.39c0.08-1.58,0.12-3.15,0.42-4.67c0.88-6.11,3.04-11.62,5.87-16.2
						c2.83-4.59,6.3-8.25,9.81-11.07c0.9-0.67,1.79-1.33,2.64-1.97c0.91-0.55,1.8-1.09,2.66-1.62c0.84-0.56,1.74-0.95,2.6-1.36
						c0.86-0.39,1.66-0.84,2.49-1.14c3.29-1.28,6.22-2.06,8.64-2.45c1.21-0.18,2.29-0.33,3.22-0.47c0.93-0.04,1.72-0.07,2.37-0.1
						c0.63-0.02,1.11-0.04,1.45-0.05C655.15,196.58,655.32,196.59,655.32,196.59s-0.17,0.02-0.49,0.05
						c-0.34,0.02-0.82,0.05-1.44,0.09c-0.64,0.04-1.43,0.08-2.36,0.14c-0.93,0.15-2,0.31-3.2,0.5c-2.4,0.42-5.32,1.22-8.58,2.51
						c-0.82,0.3-1.62,0.76-2.47,1.15c-0.84,0.41-1.74,0.81-2.57,1.36c-0.85,0.52-1.73,1.07-2.64,1.62
						c-0.85,0.64-1.72,1.29-2.62,1.97c-3.47,2.82-6.9,6.46-9.68,11.03c-2.79,4.55-4.91,10.01-5.76,16.06
						c-0.29,1.5-0.32,3.05-0.4,4.62c-0.04,0.78-0.09,1.57-0.04,2.37c0.01,0.8,0.04,1.6,0.12,2.4c0.26,3.21,0.89,6.48,1.93,9.7
						c1.06,3.21,2.53,6.37,4.41,9.37c1.88,2.99,4.2,5.79,6.85,8.32l0.11,0.1l-0.04,0.14c-1.84,6.45-3.75,13.17-5.73,20.1l-0.37-0.3
						c6.58-3.6,13.37-7.32,20.29-11.11l0.1-0.06l0.11,0.04c0.45,0.16,0.91,0.31,1.37,0.47c4.79,1.54,9.81,2.28,14.71,2
						c4.9-0.17,9.72-1.14,14.11-2.97c8.8-3.58,16.07-9.92,20.49-17.47c2.24-3.74,3.94-7.71,4.84-11.75c0.13-0.5,0.26-1,0.38-1.5
						c0.08-0.51,0.16-1.01,0.23-1.52c0.14-1.01,0.35-2,0.42-3c0.08-2.01,0.29-3.98,0.11-5.92c-0.08-3.9-0.93-7.59-1.94-11.04
						c-0.65-1.68-1.14-3.39-1.96-4.92c-0.38-0.78-0.75-1.55-1.12-2.31c-0.44-0.72-0.87-1.44-1.3-2.15
						c-3.48-5.64-7.92-9.87-12.28-12.79c-4.36-2.97-8.67-4.59-12.21-5.63c-0.9-0.23-1.74-0.46-2.54-0.67
						c-0.8-0.19-1.57-0.26-2.27-0.39c-0.7-0.11-1.36-0.22-1.95-0.31c-0.6-0.09-1.15-0.08-1.63-0.12c-0.96-0.06-1.7-0.11-2.22-0.14
						C655.57,196.62,655.32,196.59,655.32,196.59z"/>
				</g>
			</g>
		</g>
	</g>
	<g>
		<g>
			<g>
				<g>
					<g>
						<path class="st8" d="M646.04,233.28h3.01l6.56-9.14v-6c0,0,4.65-0.29,4.1,7.57c-0.55,7.86,0.04,5.86,0.04,5.86
							s9.87,0.04,10.69,0.9c0.6,0.62,0.87,10.42,0.97,15.74c0.05,2.68-1.59,5.16-4.08,5.8c-0.35,0.09-0.71,0.14-1.06,0.14
							c-2.46,0-15.03-2-15.03-2h-5.19V233.28z"/>
					</g>
				</g>
			</g>
			<g>
				<g>
					<g>
						<polygon class="st8" points="637.43,231.63 639.28,252.19 644.43,252.19 644.43,232.04 						"/>
					</g>
				</g>
			</g>
		</g>
	</g>
</g>
<g id="Character_1_1_">
	<g>
		<g>
			<g>
				<g>
					<path class="st8" d="M224.16,240.07c-0.17,3.21-4.35,7.49-3.05,10.43c2.38,5.42,1.01,11.9-2.08,16.96
						c-3.09,5.05-7.7,8.96-12.23,12.78c0.23-7.89-0.46-15.81-2.05-23.55c-0.5-2.42-1.31-5.12-3.53-6.22
						c-2.87-1.42-6.51,0.63-9.45-0.63c-3.13-1.35-3.76-5.63-6.4-7.79c-2.39-1.95-5.9-1.75-8.82-0.76c-2.92,0.98-5.62,2.62-8.63,3.3
						c-3.01,0.67-6.64,0.07-8.31-2.52c-1.03-1.6-0.29-0.62-1.27-2.25c0,0-5.87,0.2-7.89-6.63c0,0-2.76-7.59,3.34-10.94
						c0,0,1.39-13.71,15.19-7.54c3.96,1.77,8.65-3.94,12.52-1.98c3.22,1.64,4.18,6.11,7.4,7.75c3.69,1.88,8-0.91,12.14-1.09
						c5.31-0.23,10.25,4.74,9.99,10.05c0,0,0.65-2.74,5.14-1.53C220.64,229.09,224.48,233.81,224.16,240.07z"/>
				</g>
			</g>
			<g>
				<g>
					<path class="st9" d="M218.31,262.15c0.04-1.55-0.16-3.13-0.84-4.52c-0.58-1.17-2.74-3.83-5.13-3.99l0.35-14.13
						c0.06-2.92-2.13-5.39-5.03-5.7l-27.71-2.93c-9.55-1.01-18,6.14-18.61,15.73c-0.67,10.65-1.07,23.67,0.19,31.62
						c2.54,15.97,14.78,18.01,14.78,18.01l-0.3,11.16c-0.47,11.89,8.43,19.05,17.61,19.05c9.3,0,17.66-7.92,17.39-19.7l0.9-35.97
						c1.51-0.12,3-0.85,4.05-1.97C217.59,267.04,218.25,264.55,218.31,262.15z"/>
				</g>
			</g>
			<g>
				<g>
					<g>
						<g>
							<g>
								<g>
									<g>
										<g>
											<g>
												<g>
													<g>
														<g>
															<g>
																<path class="st5" d="M167.53,255.27c-0.04,1.08,0.85,2.01,1.98,2.07c1.13,0.06,2.07-0.77,2.11-1.85
																	c0.04-1.08-0.85-2.01-1.97-2.07C168.52,253.36,167.57,254.19,167.53,255.27z"/>
															</g>
														</g>
													</g>
												</g>
											</g>
											<g>
												<g>
													<g>
														<g>
															<g>
																<g>
																	<path class="st5" d="M164.17,253.38c0.25,0.27,1.81-0.88,4.01-0.88c2.2-0.03,3.82,1.11,4.06,0.84
																		c0.12-0.12-0.14-0.6-0.85-1.11c-0.69-0.51-1.88-1.01-3.25-1c-1.37,0.01-2.53,0.51-3.19,1.03
																		C164.27,252.78,164.04,253.26,164.17,253.38z"/>
																</g>
															</g>
														</g>
													</g>
												</g>
											</g>
										</g>
										<g>
											<g>
												<g>
													<g>
														<g>
															<g>
																<path class="st5" d="M188.81,255.68c-0.04,1.08,0.85,2.01,1.98,2.07c1.13,0.06,2.07-0.77,2.11-1.85
																	c0.04-1.08-0.85-2.01-1.97-2.07C189.8,253.77,188.85,254.6,188.81,255.68z"/>
															</g>
														</g>
													</g>
												</g>
											</g>
											<g>
												<g>
													<g>
														<g>
															<g>
																<g>
																	<path class="st5" d="M185.84,253.79c0.25,0.27,1.81-0.88,4.01-0.88c2.2-0.03,3.82,1.11,4.06,0.84
																		c0.12-0.12-0.14-0.6-0.85-1.11c-0.69-0.51-1.88-1.01-3.25-1c-1.37,0.01-2.53,0.51-3.19,1.03
																		C185.94,253.19,185.71,253.67,185.84,253.79z"/>
																</g>
															</g>
														</g>
													</g>
												</g>
											</g>
										</g>
										<g>
											<g>
												<g>
													<g>
														<g>
															<g>
																<path class="st5" d="M177.83,270.14c0.01-0.13-1.36-0.36-3.58-0.65c-0.56-0.06-1.1-0.17-1.19-0.55
																	c-0.13-0.41,0.1-1.01,0.38-1.67c0.53-1.36,1.08-2.79,1.66-4.29c2.31-6.1,3.99-11.12,3.74-11.21
																	c-0.25-0.09-2.32,4.78-4.63,10.89c-0.56,1.5-1.09,2.94-1.59,4.31c-0.21,0.64-0.58,1.37-0.29,2.21
																	c0.15,0.42,0.56,0.73,0.93,0.82c0.36,0.11,0.68,0.12,0.96,0.13C176.44,270.26,177.83,270.27,177.83,270.14z"/>
															</g>
														</g>
													</g>
												</g>
											</g>
										</g>
										<g>
											<g>
												<g>
													<g>
														<g>
															<path class="st10" d="M176.31,296.23c0,0,10.75,0.69,21.39-5.71c0,0-5.54,12.02-21.52,10.52L176.31,296.23z"/>
														</g>
													</g>
												</g>
											</g>
										</g>
									</g>
								</g>
							</g>
							<g>
								<g>
									<g>
										<g>
											<g>
												<path class="st5" d="M184.84,249.93c0.22,0.6,2.42,0.32,5,0.63c2.59,0.26,4.68,1.02,5.02,0.48
													c0.15-0.26-0.21-0.82-1.05-1.4c-0.84-0.58-2.17-1.13-3.72-1.3c-1.55-0.17-2.97,0.08-3.92,0.46
													C185.23,249.18,184.75,249.65,184.84,249.93z"/>
											</g>
										</g>
									</g>
								</g>
							</g>
							<g>
								<g>
									<g>
										<g>
											<g>
												<path class="st5" d="M163.81,248.25c0.39,0.5,1.91-0.02,3.73-0.04c1.83-0.09,3.37,0.34,3.73-0.19
													c0.16-0.25-0.09-0.76-0.76-1.23c-0.67-0.47-1.78-0.86-3.03-0.82c-1.25,0.04-2.34,0.49-2.98,1.01
													C163.85,247.49,163.64,248.01,163.81,248.25z"/>
											</g>
										</g>
									</g>
								</g>
							</g>
						</g>
					</g>
				</g>
				<g>
					<g>
						<g>
							<path class="st10" d="M178.32,282.62c-0.04-0.05,0.15-0.32,0.6-0.59c0.44-0.28,1.15-0.53,1.96-0.54
								c0.81,0,1.52,0.24,1.97,0.52c0.45,0.28,0.65,0.54,0.61,0.59c-0.09,0.12-1.11-0.61-2.57-0.59
								C179.42,281.99,178.4,282.74,178.32,282.62z"/>
						</g>
					</g>
				</g>
				<g>
					<g>
						<g>
							<path class="st10" d="M210.87,266.4c-0.02-0.09,0.66-0.16,1.51-0.74c0.84-0.55,1.84-1.73,1.85-3.29
								c0.03-1.55-0.84-2.83-1.65-3.41c-0.83-0.62-1.53-0.51-1.53-0.59c-0.05-0.06,0.74-0.33,1.73,0.28c0.96,0.55,2,1.96,1.97,3.72
								c-0.01,0.87-0.31,1.68-0.74,2.28c-0.43,0.61-0.96,1.04-1.44,1.31C211.59,266.52,210.87,266.45,210.87,266.4z"/>
						</g>
					</g>
				</g>
				<g>
					<g>
						<path class="st8" d="M158.33,227.07c-2.58,6.9,3.55,11.91,8.33,13.02c6.68,1.56,13.79-2.66,18.35-0.86
							c3.41,1.34,6.63,3.97,10.25,3.44c1.76-0.26,3.5-1.27,5.21-0.8c2.19,0.59,3.08,3.26,3.03,5.53c-0.06,2.8-1.01,5.58-0.65,8.36
							c0.35,2.78,2.84,5.65,5.54,4.92c2.63-0.72,4.32-3.3,4.54-6.01c0.32-3.85-0.38-8.43-0.19-12.28c0.17-3.4,0.17-7.14-1.99-9.77
							c-2.17-2.64-5.87-3.34-9.25-3.81c-14.29-1.96-28.74-2.72-43.16-2.27"/>
					</g>
				</g>
				<g>
					<g>
						<g>
							<path class="st11" d="M149.92,228.54c0,0-0.11-0.24-0.14-0.72c-0.03-0.48,0.02-1.22,0.42-2.07c0.4-0.82,1.16-1.78,2.41-2.29
								c0.62-0.25,1.37-0.33,2.1-0.24c0.74,0.08,1.5,0.27,2.28,0.32c0.78,0.06,1.6-0.14,2.36-0.53c0.77-0.38,1.47-0.97,2.19-1.59
								c0.72-0.62,1.45-1.3,2.29-1.91c0.85-0.6,1.85-1.09,2.94-1.29c2.19-0.43,4.56,0.11,6.69,1.14c2.14,1.06,4.02,2.65,5.92,4.23
								c1.9,1.57,3.78,3.14,5.91,3.99c1.06,0.41,2.18,0.62,3.25,0.49c1.08-0.12,2.09-0.52,3.04-0.99c1.88-0.95,3.66-2.1,5.56-2.56
								c1.88-0.5,3.74-0.55,5.36-0.17c1.62,0.37,2.95,1.18,3.89,2.09c0.94,0.92,1.52,1.92,1.85,2.78c0.32,0.87,0.41,1.59,0.41,2.07
								c0.02,0.24-0.02,0.42-0.02,0.55c-0.01,0.12-0.02,0.18-0.03,0.18c-0.08,0.01,0.13-1.05-0.54-2.73
								c-0.35-0.82-0.93-1.77-1.86-2.64c-0.93-0.86-2.21-1.61-3.77-1.94c-1.55-0.35-3.35-0.28-5.16,0.23
								c-1.83,0.47-3.53,1.58-5.47,2.58c-0.97,0.48-2.03,0.91-3.2,1.05c-1.17,0.14-2.38-0.08-3.49-0.51
								c-2.25-0.89-4.15-2.49-6.05-4.06c-1.9-1.58-3.75-3.15-5.82-4.17c-2.05-1-4.32-1.52-6.37-1.12c-2.09,0.34-3.6,1.82-5.04,3.05
								c-0.73,0.62-1.47,1.22-2.29,1.62c-0.82,0.41-1.72,0.61-2.56,0.53c-0.84-0.06-1.59-0.27-2.3-0.36
								c-0.71-0.1-1.38-0.04-1.96,0.18c-1.17,0.45-1.93,1.34-2.33,2.11c-0.41,0.79-0.49,1.5-0.5,1.97
								C149.88,228.29,149.95,228.53,149.92,228.54z"/>
						</g>
					</g>
				</g>
				<g>
					<g>
						<g>
							<path class="st11" d="M157.65,239.66c0,0-0.23,0.12-0.7,0.05c-0.45-0.07-1.15-0.38-1.62-1.16c-0.47-0.77-0.58-1.92-0.38-3.14
								c0.19-1.23,0.7-2.6,1.63-3.87c0.92-1.27,2.32-2.42,4.07-3.06c1.74-0.64,3.83-0.79,5.83-0.15c2.01,0.63,3.82,1.89,5.61,3.18
								c1.8,1.28,3.66,2.67,5.88,3.3c2.21,0.65,4.54,0.32,6.61-0.36c2.08-0.69,3.96-1.71,5.72-2.73c1.77-1.01,3.46-1.99,5.15-2.71
								c1.68-0.71,3.35-1.2,4.93-1.28c3.16-0.15,5.63,1.07,6.85,2.3c0.64,0.61,0.96,1.22,1.18,1.62c0.17,0.43,0.25,0.65,0.24,0.66
								c-0.07,0.04-0.3-0.95-1.55-2.13c-1.22-1.15-3.64-2.28-6.69-2.08c-1.51,0.09-3.14,0.59-4.78,1.3
								c-1.65,0.72-3.31,1.7-5.08,2.73c-1.76,1.03-3.67,2.08-5.8,2.8c-2.12,0.71-4.56,1.07-6.91,0.38c-2.34-0.67-4.25-2.1-6.04-3.39
								c-1.79-1.3-3.55-2.53-5.46-3.14c-1.9-0.62-3.88-0.5-5.54,0.1c-1.68,0.59-3.01,1.67-3.92,2.87c-0.91,1.21-1.43,2.52-1.64,3.7
								c-0.23,1.18-0.14,2.26,0.27,2.99c0.41,0.73,1.04,1.06,1.46,1.16C157.41,239.7,157.65,239.63,157.65,239.66z"/>
						</g>
					</g>
				</g>
				<g>
					<g>
						<g>
							<path class="st11" d="M218.89,266.31c-0.04-0.03,0.37-0.48,0.89-1.4c0.52-0.92,1.11-2.39,1.2-4.28
								c0.04-0.94-0.05-1.98-0.38-3.04c-0.31-1.06-0.89-2.1-1.6-3.14c-0.7-1.05-1.53-2.1-2.26-3.3c-0.71-1.19-1.37-2.61-1.31-4.16
								c0.03-1.57,0.75-2.91,1.33-4.14c0.6-1.24,1.11-2.46,1.12-3.69c0.06-2.48-1.35-4.57-2.95-5.49c-1.62-0.96-3.26-0.99-4.28-0.84
								c-1.05,0.16-1.59,0.45-1.61,0.4c-0.01-0.02,0.12-0.09,0.38-0.22c0.26-0.11,0.66-0.28,1.19-0.38c1.05-0.21,2.75-0.26,4.5,0.72
								c1.73,0.95,3.28,3.14,3.25,5.82c0,1.34-0.54,2.66-1.14,3.89c-0.58,1.25-1.26,2.53-1.27,3.94c-0.06,1.41,0.54,2.73,1.22,3.89
								c0.7,1.17,1.52,2.22,2.22,3.3c0.71,1.06,1.31,2.16,1.62,3.28c0.33,1.11,0.39,2.2,0.33,3.18c-0.14,1.96-0.8,3.45-1.39,4.36
								c-0.29,0.46-0.55,0.79-0.75,1C219.01,266.22,218.9,266.32,218.89,266.31z"/>
						</g>
					</g>
				</g>
				<g>
					<g>
						<g>
							<path class="st5" d="M176.96,254.64c-0.07,0.01-0.01-0.92-0.42-2.49c-0.4-1.54-1.44-3.8-3.75-5.54
								c-1.15-0.85-2.59-1.57-4.25-1.86c-1.65-0.28-3.51-0.22-5.28,0.46c-0.89,0.31-1.75,0.78-2.54,1.37
								c-0.8,0.58-1.52,1.3-2.12,2.13c-1.23,1.64-1.93,3.75-1.95,5.93c0.02,2.18,0.71,4.29,1.95,5.93c0.6,0.83,1.32,1.55,2.12,2.13
								c0.79,0.59,1.65,1.06,2.54,1.37c1.77,0.68,3.63,0.73,5.28,0.46c1.66-0.29,3.1-1.01,4.25-1.86c2.32-1.74,3.35-4,3.75-5.54
								C176.95,255.55,176.89,254.63,176.96,254.64c0,0,0.13,0.92-0.22,2.54c-0.35,1.58-1.36,3.94-3.73,5.79
								c-1.17,0.9-2.67,1.67-4.4,1.99c-1.72,0.31-3.66,0.27-5.52-0.43c-0.94-0.32-1.84-0.81-2.67-1.42
								c-0.84-0.61-1.6-1.36-2.23-2.23c-1.3-1.72-2.04-3.94-2.06-6.23c0.02-2.29,0.76-4.51,2.06-6.23c0.63-0.87,1.39-1.63,2.23-2.23
								c0.83-0.62,1.73-1.1,2.67-1.42c1.86-0.7,3.8-0.74,5.52-0.43c1.73,0.32,3.22,1.09,4.4,1.99c2.37,1.85,3.38,4.2,3.73,5.79
								C177.09,253.72,176.96,254.64,176.96,254.64z"/>
						</g>
					</g>
				</g>
				<g>
					<g>
						<g>
							<path class="st5" d="M200.44,254.64c-0.07,0.01-0.01-0.92-0.42-2.49c-0.4-1.54-1.44-3.8-3.75-5.54
								c-1.15-0.85-2.59-1.57-4.25-1.86c-1.65-0.28-3.51-0.22-5.28,0.46c-0.89,0.31-1.75,0.78-2.54,1.37
								c-0.8,0.58-1.52,1.3-2.12,2.13c-1.23,1.64-1.93,3.75-1.95,5.93c0.02,2.18,0.71,4.29,1.95,5.93c0.6,0.83,1.32,1.55,2.12,2.13
								c0.79,0.59,1.65,1.06,2.54,1.37c1.77,0.68,3.63,0.73,5.28,0.46c1.66-0.29,3.1-1.01,4.25-1.86c2.32-1.74,3.35-4,3.75-5.54
								C200.43,255.55,200.38,254.63,200.44,254.64c0,0,0.13,0.92-0.22,2.54c-0.35,1.58-1.36,3.94-3.73,5.79
								c-1.17,0.9-2.67,1.67-4.4,1.99c-1.72,0.31-3.66,0.27-5.52-0.43c-0.94-0.32-1.84-0.81-2.67-1.42
								c-0.84-0.61-1.6-1.36-2.23-2.23c-1.3-1.72-2.04-3.94-2.06-6.23c0.02-2.29,0.76-4.51,2.06-6.23c0.63-0.87,1.39-1.63,2.23-2.23
								c0.83-0.62,1.73-1.1,2.67-1.42c1.86-0.7,3.8-0.74,5.52-0.43c1.73,0.32,3.22,1.09,4.4,1.99c2.37,1.85,3.38,4.2,3.73,5.79
								C200.58,253.72,200.44,254.64,200.44,254.64z"/>
						</g>
					</g>
				</g>
				<g>
					<g>
						<g>
							<path class="st5" d="M180.44,252.92c0-0.01,0-0.02,0.01-0.03l0.01-0.01l0.01-0.01l0,0l0,0l0,0l0,0l0,0.11l0,0
								c-0.01,0.01-0.03,0.02-0.05,0.03l-0.01,0.01l-0.01,0l0,0l0,0l0-0.18v0l0,0l0,0l0.03-0.01v0.21
								c-0.28,0.09-0.93,0.16-1.68,0.16c-1.01,0-1.83-0.12-1.83-0.26c0-0.14,0.82-0.26,1.83-0.26c0.75,0,1.4,0.06,1.68,0.16v0.21
								l-0.03-0.01l0,0l0,0v0l0-0.18l0,0l0,0l0.01,0l0.01,0.01c0.02,0.01,0.03,0.02,0.05,0.03l0,0l0,0.11l0,0l0,0l0,0l0,0
								l-0.01-0.01l-0.01-0.01C180.44,252.94,180.44,252.93,180.44,252.92z"/>
						</g>
					</g>
				</g>
				<g>
					<g>
						<g>
							<path class="st5" d="M212.79,255.18c-0.01,0.14-2.83,0.06-6.3-0.19c-3.47-0.25-6.27-0.57-6.26-0.71
								c0.01-0.14,2.83-0.06,6.3,0.19C210,254.72,212.8,255.04,212.79,255.18z"/>
						</g>
					</g>
				</g>
				<g>
					<g>
						<g>
							<path class="st5" d="M187.03,269.59c0.06-0.01,0.23,0.61,0.07,1.62c-0.15,0.99-0.72,2.38-1.95,3.39
								c-1.23,1-2.71,1.29-3.71,1.24c-1.02-0.04-1.59-0.34-1.57-0.39c0.02-0.08,0.61,0.08,1.57,0.02c0.94-0.04,2.27-0.37,3.38-1.28
								c1.11-0.91,1.69-2.15,1.92-3.06C186.98,270.2,186.94,269.59,187.03,269.59z"/>
						</g>
					</g>
				</g>
			</g>
		</g>
		<g>
			<g>
				<g>
					<g>
						<path class="st5" d="M147.39,341.38c0.01,0,0.02,0.11,0.03,0.32c0.01,0.24,0.02,0.55,0.03,0.94c0.01,0.86,0.03,2.07,0.05,3.61
							c0.02,3.17,0.04,7.7,0.07,13.29c0.03,11.22-0.35,26.73-1.21,43.83c-0.93,17.09-1.77,32.55-2.38,43.78
							c-0.28,5.58-0.51,10.1-0.66,13.27c-0.08,1.54-0.14,2.75-0.18,3.61c-0.03,0.39-0.05,0.7-0.06,0.94
							c-0.02,0.21-0.03,0.32-0.04,0.32c-0.01,0-0.01-0.11-0.01-0.32c0-0.24,0.01-0.55,0.01-0.94c0.02-0.86,0.05-2.07,0.09-3.61
							c0.09-3.14,0.25-7.67,0.5-13.28c0.47-11.21,1.38-26.69,2.23-43.79c0.87-17.1,1.31-32.59,1.37-43.8
							c0.04-5.58,0.07-10.11,0.09-13.29c0.02-1.54,0.04-2.75,0.05-3.61c0.01-0.39,0.02-0.7,0.03-0.94
							C147.37,341.49,147.38,341.38,147.39,341.38z"/>
					</g>
				</g>
			</g>
			<g>
				<g>
					<path class="st12" d="M243.99,324.16c-5.38-6.21-15.89-7.12-20.55-3.75c-4.66,3.37-7.25,9.1-7.72,14.83
						c-0.47,5.73,0.99,11.47,3.18,16.79c3.51,8.52,8.7,15.42,16.45,24.19l19.98,26.23l-38.55,37.64l15.97,25.21l32.77-26.4
						l27.1-28.73"/>
				</g>
			</g>
			<g>
				<g>
					<g>
						<path class="st5" d="M104.61,405c-0.03-0.05,0.72-0.53,2.07-1c1.35-0.47,3.32-0.86,5.52-0.74c2.19,0.12,4.12,0.72,5.41,1.34
							c1.29,0.61,1.99,1.18,1.95,1.22c-0.05,0.08-0.8-0.37-2.1-0.88c-1.29-0.51-3.17-1.03-5.29-1.15c-2.12-0.11-4.04,0.2-5.38,0.58
							C105.45,404.72,104.65,405.08,104.61,405z"/>
					</g>
				</g>
			</g>
			<g>
				<g>
					<path class="st12" d="M249.19,330.05l-0.02,0.04c-13.46-17.84-27.94-16.37-35.32-16.58v-7.83c-5.45,0-12.9,4.91-16.75,8.43
						l-3.8,5.23l0,0c-2.02-5.79-6.6-10.37-12.44-12.21c-3.53-1.11-6.37-1.45-6.37-1.45v7.01c-18.07,0.5-27.74,5.45-39.82,19.43
						c-0.63,0.72-1.85,1.95-3.26,3.34l0,0l-35.75,41.97c-7.3,8.08-13.95,19.2-12.43,29.98v0c1.72,12.15,8.8,20.16,22.37,29.33
						l37.6,24.37l-0.18,4.19h89.73c0,0,60.85-44.89,62.34-61.52C296.27,390.64,275.31,362.79,249.19,330.05z M144.73,425.36
						l-26.31-19.64l28.42-29.41L144.73,425.36z M230.89,426.92l-0.71-14.53l3.77-38.17c7.5,8.6,21.38,25.67,21.38,28.22
						L230.89,426.92z"/>
				</g>
			</g>
			<g>
				<g>
					<g>
						<path class="st13" d="M193.3,319.33"/>
					</g>
				</g>
			</g>
			<g>
				<g>
					<g>
						<path class="st5" d="M213.86,313.51c0.03,0.02-0.21,0.44-0.68,1.19c-0.47,0.74-1.17,1.81-2.07,3.1
							c-1.8,2.58-4.46,6.06-7.87,9.48c-0.85,0.86-1.71,1.67-2.55,2.44l-0.42,0.39l-0.01-0.57c-0.03-1.94-0.51-3.74-1.21-5.22
							c-0.7-1.49-1.61-2.66-2.47-3.53c-0.86-0.87-1.65-1.49-2.29-1.62c-0.65-0.13-0.95,0.22-0.97,0.17c-0.02,0.02,0.25-0.42,1-0.34
							c0.73,0.09,1.59,0.71,2.5,1.56c0.91,0.86,1.88,2.05,2.64,3.58c0.75,1.52,1.28,3.38,1.32,5.41l-0.43-0.19
							c0.83-0.77,1.69-1.57,2.53-2.43c3.38-3.39,6.07-6.81,7.94-9.33c0.88-1.2,1.62-2.21,2.2-3
							C213.53,313.87,213.83,313.49,213.86,313.51z"/>
					</g>
				</g>
			</g>
			<g>
				<g>
					<g>
						<path class="st5" d="M174.49,312.68c0.03-0.02,0.31,0.31,0.79,0.93c0.54,0.71,1.2,1.59,1.99,2.64
							c1.66,2.24,3.93,5.35,6.41,8.81c0.55,0.77,1.09,1.53,1.62,2.26l-0.45,0.07c0.58-1.7,1.19-3.31,2.02-4.63
							c0.81-1.33,1.88-2.3,2.89-2.85c1.02-0.56,1.96-0.73,2.59-0.73c0.64,0,0.97,0.12,0.96,0.14c-0.01,0.04-0.35-0.01-0.95,0.04
							c-0.61,0.05-1.49,0.26-2.43,0.84c-0.95,0.57-1.92,1.5-2.68,2.79c-0.78,1.28-1.35,2.86-1.92,4.56l-0.16,0.47l-0.29-0.41
							c-0.52-0.73-1.07-1.48-1.62-2.26c-2.48-3.46-4.7-6.61-6.28-8.9c-0.74-1.08-1.36-2-1.86-2.73
							C174.68,313.07,174.46,312.7,174.49,312.68z"/>
					</g>
				</g>
			</g>
			<g class="st14">
				<g>
					<g>
						<path d="M193.3,319.33c3,3.06,4.47,8.02,3.91,12.28c-0.19,1.46-0.36,3.4,1.01,3.94c0.95,0.38,1.97-0.28,2.77-0.92
							c5.82-4.68,10.65-10.58,14.1-17.2c0.28-0.55,0.57-1.13,0.52-1.75c-0.05-0.61-0.56-1.24-1.17-1.17
							c-0.43,0.05-0.76,0.4-1.04,0.73c-4.16,4.8-8.76,9.79-12.92,14.58c0.16-2.78-0.66-5.36-2.31-7.39
							C196.52,320.4,194.72,318.36,193.3,319.33"/>
					</g>
				</g>
			</g>
			<g>
				<g>
					<g>
						<path class="st5" d="M231.67,463.62c-0.01,0.01-0.12-0.14-0.31-0.42c-0.21-0.32-0.49-0.74-0.83-1.26
							c-0.74-1.15-1.78-2.76-3.07-4.76c-2.62-4.14-6.26-9.9-10.51-16.62l-0.1-0.17l0.14-0.14c2.91-2.9,6.08-6.06,9.38-9.35
							c7.96-7.87,15.16-15,20.41-20.2c2.6-2.54,4.72-4.61,6.23-6.08c0.72-0.68,1.29-1.23,1.71-1.63c0.4-0.37,0.61-0.56,0.62-0.54
							c0.01,0.01-0.18,0.23-0.55,0.62c-0.41,0.42-0.96,0.99-1.64,1.7c-1.48,1.5-3.56,3.61-6.11,6.2
							c-5.23,5.23-12.39,12.39-20.3,20.31c-3.31,3.29-6.49,6.44-9.4,9.33l0.03-0.3c4.18,6.75,7.78,12.55,10.35,16.72
							c1.24,2.04,2.23,3.67,2.95,4.84c0.32,0.54,0.57,0.97,0.77,1.3C231.6,463.45,231.68,463.61,231.67,463.62z"/>
					</g>
				</g>
			</g>
			<g>
				<g>
					<g>
						<path class="st5" d="M220.64,323.65c0.01,0.01-0.04,0.07-0.15,0.2c-0.12,0.14-0.28,0.32-0.46,0.54
							c-0.43,0.45-1,1.17-1.72,2.12c-1.36,1.9-3.16,4.95-3.82,9.13c-0.68,4.16-0.02,9.32,2.22,14.44c1.12,2.55,2.53,5.16,4.4,7.53
							c1.94,2.36,3.93,4.82,5.95,7.36c8.06,10.17,15,19.64,20.09,26.44c2.52,3.38,4.57,6.12,6.02,8.06c0.69,0.93,1.23,1.66,1.63,2.2
							c0.17,0.23,0.3,0.42,0.41,0.58c0.09,0.13,0.13,0.2,0.13,0.21c-0.01,0.01-0.06-0.05-0.17-0.18c-0.12-0.15-0.27-0.33-0.45-0.55
							c-0.42-0.52-0.99-1.24-1.7-2.14c-1.47-1.87-3.57-4.59-6.15-7.97c-5.17-6.75-12.15-16.18-20.21-26.34c-2.01-2.54-4-5-5.93-7.37
							c-1.91-2.44-3.32-5.07-4.44-7.66c-2.25-5.19-2.89-10.46-2.15-14.68c0.72-4.25,2.6-7.31,4.03-9.19
							c0.75-0.93,1.35-1.63,1.81-2.07c0.2-0.2,0.37-0.37,0.5-0.5C220.57,323.7,220.63,323.64,220.64,323.65z"/>
					</g>
				</g>
			</g>
			<g>
				<g>
					<g>
						<path class="st4" d="M254.37,336.56c0.02,0.05-0.55,0.23-1.49,0.73c-0.94,0.5-2.22,1.37-3.55,2.73
							c-1.34,1.35-2.69,3.19-4,5.34c-1.33,2.15-2.66,4.62-4.47,6.96c-1.78,2.37-4.05,4.2-6.39,5.28c-2.33,1.11-4.65,1.56-6.58,1.64
							c-1.94,0.09-3.5-0.16-4.55-0.42c-0.53-0.12-0.92-0.26-1.19-0.36c-0.27-0.1-0.4-0.15-0.4-0.17c0.02-0.14,2.3,0.83,6.11,0.58
							c1.89-0.13,4.14-0.6,6.39-1.71c2.26-1.08,4.44-2.85,6.18-5.17c1.77-2.3,3.11-4.75,4.47-6.9c1.35-2.16,2.75-4,4.15-5.35
							c1.39-1.36,2.74-2.2,3.72-2.65c0.49-0.22,0.88-0.38,1.16-0.45C254.22,336.58,254.36,336.55,254.37,336.56z"/>
					</g>
				</g>
			</g>
			<g>
				<g>
					<g>
						<path class="st4" d="M230.52,424.49c0,0.01-0.08,0-0.24-0.04c-0.18-0.04-0.4-0.09-0.68-0.15c-0.29-0.08-0.67-0.14-1.11-0.2
							c-0.44-0.08-0.95-0.13-1.52-0.17c-2.3-0.19-5.68,0.1-9.65,1.24c-1.99,0.57-4.12,1.33-6.34,2.32
							c-2.22,0.98-4.52,2.22-7.01,3.39c-2.49,1.16-5.16,2.32-8.08,3.06c-1.46,0.37-2.98,0.63-4.54,0.72
							c-1.56,0.07-3.16-0.03-4.73-0.34c-3.15-0.65-6.02-2-8.59-3.54c-2.58-1.54-4.89-3.28-7.1-4.91c-4.38-3.28-8.55-6.02-12.52-7.18
							c-1.97-0.61-3.83-0.86-5.46-0.89c-1.64-0.02-3.04,0.19-4.15,0.49c-2.24,0.59-3.29,1.41-3.32,1.34c0-0.01,0.06-0.05,0.19-0.14
							c0.16-0.1,0.35-0.22,0.59-0.37c0.54-0.28,1.35-0.71,2.48-1.02c1.12-0.33,2.54-0.58,4.21-0.58c1.66,0.01,3.56,0.24,5.57,0.83
							c4.06,1.14,8.31,3.88,12.7,7.15c2.22,1.62,4.52,3.34,7.08,4.86c2.54,1.52,5.36,2.84,8.43,3.47c1.53,0.31,3.08,0.41,4.6,0.34
							c1.52-0.08,3.01-0.34,4.44-0.7c2.87-0.72,5.52-1.86,8-3c2.48-1.15,4.79-2.37,7.04-3.35c2.25-0.98,4.41-1.73,6.42-2.28
							c4.02-1.11,7.45-1.34,9.77-1.09C229.32,423.97,230.52,424.49,230.52,424.49z"/>
					</g>
				</g>
			</g>
			<g>
				<g>
					<g>
						<path class="st4" d="M131.67,415.61c0.02,0,0.05,0.12,0.08,0.34c0.03,0.23,0.09,0.56,0.12,1c0.07,0.87,0.1,2.15-0.16,3.71
							c-0.25,1.55-0.86,3.39-2.08,5.12c-1.19,1.75-3.08,3.18-5.13,4.4c-2.05,1.23-4.07,2.25-5.72,3.45
							c-1.65,1.2-3.01,2.46-3.86,3.73c-0.87,1.27-1.14,2.51-1.15,3.36c-0.01,0.86,0.13,1.33,0.08,1.34c-0.02,0-0.06-0.11-0.12-0.33
							c-0.07-0.22-0.13-0.56-0.16-1c-0.05-0.88,0.18-2.22,1.05-3.57c0.85-1.36,2.22-2.68,3.89-3.92c1.68-1.25,3.71-2.3,5.73-3.51
							c2.03-1.21,3.84-2.57,5.01-4.23c1.19-1.64,1.82-3.4,2.11-4.9c0.3-1.51,0.33-2.77,0.32-3.64
							C131.66,416.1,131.63,415.62,131.67,415.61z"/>
					</g>
				</g>
			</g>
			<g>
				<g>
					<g>
						<path class="st4" d="M282.58,374.22c0.04,0.14-2.46,0.15-5.93,1.85c-1.72,0.85-3.64,2.16-5.33,4.04
							c-0.84,0.94-1.62,2.03-2.26,3.24c-0.66,1.2-1.11,2.58-1.76,3.93c-0.62,1.36-1.52,2.62-2.64,3.52
							c-1.1,0.92-2.35,1.55-3.58,1.99c-2.47,0.87-4.86,0.94-6.8,0.85c-1.95-0.1-3.51-0.37-4.58-0.54c-1.07-0.19-1.66-0.31-1.65-0.35
							c0.01-0.04,0.6,0.02,1.68,0.15c1.08,0.12,2.63,0.32,4.56,0.38c1.92,0.05,4.25-0.06,6.62-0.93c2.37-0.83,4.76-2.56,5.9-5.27
							c0.63-1.32,1.09-2.7,1.78-3.95c0.67-1.25,1.48-2.36,2.35-3.33c1.76-1.92,3.75-3.23,5.53-4.05c1.78-0.83,3.33-1.21,4.41-1.38
							c0.54-0.1,0.96-0.12,1.25-0.14C282.43,374.2,282.58,374.2,282.58,374.22z"/>
					</g>
				</g>
			</g>
			<g>
				<g>
					<g>
						<path class="st4" d="M232.88,382.66c0,0.01-0.08,0.03-0.23,0.07c-0.18,0.04-0.41,0.09-0.68,0.15
							c-0.6,0.13-1.49,0.29-2.65,0.47c-2.31,0.35-5.68,0.75-9.87,0.7c-4.17-0.08-9.2-0.6-14.45-2.45c-2.63-0.91-5.24-2.22-7.86-3.69
							c-2.63-1.44-5.32-3-8.3-4.05c-1.48-0.52-3-0.89-4.52-1.02c-1.52-0.08-3.03-0.07-4.49,0.22c-2.92,0.51-5.59,1.65-8.03,2.89
							c-4.85,2.57-8.94,5.43-12.62,7.42c-3.65,2.04-6.89,3.2-9.2,3.59c-1.14,0.27-2.06,0.26-2.67,0.3c-0.28,0.01-0.51,0.02-0.7,0.02
							c-0.16,0-0.24,0-0.24-0.01c0-0.01,0.08-0.02,0.24-0.04c0.19-0.02,0.42-0.05,0.69-0.08c0.61-0.07,1.51-0.09,2.64-0.39
							c2.28-0.44,5.45-1.64,9.06-3.71c3.64-2.02,7.69-4.9,12.58-7.53c2.46-1.26,5.17-2.43,8.17-2.97c1.49-0.3,3.06-0.32,4.62-0.24
							c1.57,0.14,3.13,0.52,4.65,1.05c3.04,1.07,5.75,2.65,8.37,4.1c2.61,1.47,5.18,2.78,7.77,3.68c5.17,1.85,10.15,2.41,14.3,2.53
							c4.16,0.1,7.52-0.24,9.83-0.53c1.16-0.15,2.05-0.28,2.66-0.38c0.28-0.04,0.51-0.07,0.69-0.1
							C232.8,382.66,232.88,382.65,232.88,382.66z"/>
					</g>
				</g>
			</g>
			<g>
				<g>
					<g>
						<path class="st4" d="M135.13,388.44c-0.07-0.01,0.24-0.58-0.05-1.54c-0.29-0.95-1.4-2.09-3.14-2.57
							c-0.87-0.26-1.86-0.41-2.93-0.65c-1.06-0.24-2.24-0.63-3.2-1.47c-0.97-0.82-1.69-1.96-2.22-3.2
							c-0.53-1.25-0.84-2.61-1.15-3.97c-0.31-1.37-0.63-2.69-1.14-3.88c-0.51-1.2-1.15-2.29-1.87-3.24
							c-1.44-1.91-3.22-3.24-4.83-4.07c-1.61-0.85-3.06-1.22-4.06-1.42c-1-0.2-1.57-0.24-1.57-0.29c0-0.02,0.14-0.02,0.42-0.01
							c0.27,0.01,0.68,0.02,1.19,0.11c1.02,0.14,2.51,0.47,4.19,1.29c1.67,0.81,3.53,2.14,5.04,4.1c0.76,0.97,1.43,2.1,1.96,3.33
							c0.53,1.24,0.87,2.6,1.18,3.97c0.31,1.37,0.61,2.7,1.11,3.89c0.5,1.19,1.17,2.27,2.06,3.03c0.88,0.78,1.96,1.16,2.99,1.42
							c1.04,0.26,2.04,0.43,2.93,0.72c1.82,0.55,2.98,1.82,3.23,2.86c0.13,0.52,0.08,0.94,0.02,1.21
							C135.21,388.32,135.14,388.45,135.13,388.44z"/>
					</g>
				</g>
			</g>
			<g>
				<g>
					<g>
						<path class="st4" d="M214.11,337.15c-0.03,0.07-0.95-0.69-2.94-1.19c-0.99-0.22-2.26-0.32-3.68-0.05
							c-1.43,0.24-2.99,0.81-4.66,1.57c-1.67,0.76-3.43,1.73-5.36,2.75c-1.92,1-4.03,2.05-6.43,2.67c-2.4,0.63-5.05,0.68-7.69,0.25
							c-2.65-0.45-5.29-1.37-7.84-2.59c-5.11-2.49-9.36-5.83-13.46-8.43c-4.07-2.65-8.05-4.57-11.65-5.33
							c-3.58-0.83-6.61-0.58-8.59-0.1c-1.99,0.49-3,1.05-3.03,0.99c0,0,0.98-0.63,2.98-1.19c1.99-0.55,5.07-0.86,8.72-0.06
							c3.66,0.72,7.72,2.65,11.83,5.29c4.14,2.59,8.39,5.91,13.43,8.36c2.52,1.21,5.11,2.11,7.7,2.56c2.58,0.43,5.16,0.38,7.49-0.21
							c2.34-0.58,4.42-1.61,6.35-2.59c1.92-0.99,3.71-1.96,5.4-2.7c1.69-0.74,3.3-1.3,4.77-1.52c1.47-0.25,2.77-0.11,3.78,0.14
							c1.01,0.26,1.73,0.66,2.21,0.92C213.88,336.98,214.12,337.14,214.11,337.15z"/>
					</g>
				</g>
			</g>
			<g>
				<g>
					<g>
						<g>
							<path class="st9" d="M208.46,464.11c1.01,0.51-0.11-0.05,2.78,1.38l16.04-0.03l3.23-2.63l-11.69-19.23
								c-1.43,0.62-7.71,1.61-9.73,2.32c-1.75,0.62-3.6,0.92-5.45,0.92c-1.96,0-4.48-0.1-6.17-0.51c-0.14-0.05-0.31-0.09-0.43-0.14
								c-0.29-0.13-0.58-0.17-0.86-0.17c-1.74-0.15-3.11,1.66-2.14,3.09c0.99,1.47,5.71,3.34,11.75,3.17c0.1,0,0.18,0.01,0.28,0.01
								c5.31-0.01,0.44,4.44-2.71,7.08c-1.11,0.93-1.74,2.36-1.52,3.79c0.08,0.55,0.29,1.04,0.71,1.3
								C203.89,465.29,208.46,464.11,208.46,464.11z"/>
						</g>
					</g>
				</g>
			</g>
			<g>
				<g>
					<g>
						<path class="st5" d="M143.17,461.72c-0.01,0-0.01-0.1-0.01-0.28c0-0.22,0.01-0.49,0.02-0.83c0.03-0.77,0.07-1.83,0.11-3.19
							c0.12-2.8,0.29-6.8,0.49-11.71c0.41-9.92,0.98-23.56,1.61-38.63c0.59-15.09,1.04-28.76,1.28-38.65
							c0.1-4.92,0.19-8.91,0.25-11.72c0.03-1.35,0.05-2.42,0.07-3.19c0.01-0.34,0.02-0.61,0.03-0.83c0.01-0.19,0.02-0.28,0.03-0.28
							c0.01,0,0.02,0.1,0.02,0.28c0.01,0.22,0.01,0.49,0.02,0.83c0.01,0.77,0.02,1.83,0.03,3.19c0.03,2.77-0.02,6.77-0.08,11.72
							c-0.15,9.9-0.54,23.57-1.13,38.66c-0.59,15.09-1.24,28.75-1.76,38.63c-0.28,4.91-0.5,8.9-0.66,11.7
							c-0.09,1.35-0.16,2.42-0.21,3.18c-0.03,0.34-0.05,0.61-0.07,0.83C143.19,461.62,143.18,461.72,143.17,461.72z"/>
					</g>
				</g>
			</g>
			<g>
				<g>
					<g>
						<path class="st5" d="M186.7,463.62c-0.01,0-0.03-0.12-0.05-0.37c-0.02-0.27-0.05-0.63-0.09-1.09c-0.07-0.99-0.17-2.4-0.29-4.2
							c-0.12-1.83-0.28-4.06-0.36-6.66c-0.08-2.6-0.26-5.55-0.29-8.83c-0.05-3.27-0.14-6.86-0.09-10.7c0.01-1.92,0-3.91,0.04-5.96
							c0.05-2.05,0.09-4.16,0.14-6.32c0.25-8.65,0.7-18.15,1.4-28.11c1.4-19.93,3.18-37.92,4.32-50.95
							c0.56-6.49,1.02-11.76,1.34-15.43c0.16-1.8,0.28-3.21,0.36-4.2c0.05-0.46,0.08-0.82,0.11-1.09c0.03-0.25,0.05-0.37,0.05-0.37
							c0.01,0,0.01,0.13,0,0.37c-0.01,0.27-0.03,0.63-0.06,1.09c-0.06,0.99-0.15,2.4-0.27,4.2c-0.23,3.65-0.64,8.93-1.17,15.45
							c-1.05,13.04-2.77,31.04-4.17,50.95c-0.69,9.95-1.16,19.45-1.44,28.09c-0.06,2.16-0.11,4.27-0.16,6.31
							c-0.05,2.05-0.04,4.04-0.07,5.96c-0.07,3.84,0,7.43,0.03,10.69c0,3.27,0.15,6.23,0.21,8.82c0.05,2.6,0.18,4.83,0.27,6.66
							c0.08,1.8,0.15,3.22,0.19,4.21c0.02,0.46,0.03,0.82,0.04,1.1C186.71,463.49,186.71,463.62,186.7,463.62z"/>
					</g>
				</g>
			</g>
			<g>
				<g>
					<g>
						<path class="st5" d="M194.06,365.1c-0.05-0.05,0.52-0.29,1.13,0.25c0.28,0.25,0.56,0.7,0.49,1.26
							c-0.06,0.58-0.61,1.06-1.21,1.15c-0.6,0.11-1.28-0.16-1.52-0.69c-0.25-0.51-0.13-1.02,0.05-1.35c0.41-0.71,1.02-0.67,0.99-0.6
							c0.03,0.08-0.43,0.18-0.66,0.76c-0.11,0.28-0.14,0.66,0.04,0.97c0.16,0.31,0.58,0.48,1.01,0.4c0.43-0.07,0.77-0.37,0.82-0.71
							c0.07-0.35-0.09-0.7-0.28-0.93C194.52,365.13,194.06,365.19,194.06,365.1z"/>
					</g>
				</g>
			</g>
			<g>
				<g>
					<g>
						<path class="st5" d="M191.25,409.99c-0.05-0.05,0.52-0.29,1.13,0.25c0.28,0.25,0.56,0.7,0.49,1.26
							c-0.06,0.58-0.61,1.06-1.21,1.15c-0.6,0.11-1.28-0.16-1.52-0.69c-0.25-0.51-0.13-1.02,0.05-1.35c0.41-0.71,1.02-0.67,0.99-0.6
							c0.03,0.08-0.43,0.18-0.66,0.76c-0.11,0.28-0.14,0.66,0.04,0.97c0.16,0.31,0.58,0.48,1.01,0.4c0.43-0.07,0.77-0.37,0.82-0.71
							c0.07-0.35-0.09-0.7-0.28-0.93C191.72,410.02,191.25,410.07,191.25,409.99z"/>
					</g>
				</g>
			</g>
			<g>
				<g>
					<g>
						<path class="st4" d="M262.98,440.85c0,0.03-0.48-0.01-1.34-0.17c-0.85-0.18-2.08-0.5-3.52-1.13c-2.85-1.23-6.59-3.84-9-8.04
							c-1.23-2.08-1.85-4.3-2.49-6.23c-0.63-1.95-1.34-3.64-2.22-4.89c-0.86-1.27-1.82-2.08-2.54-2.54
							c-0.73-0.45-1.19-0.61-1.17-0.65c0.01-0.02,0.12,0.01,0.35,0.07c0.22,0.07,0.54,0.19,0.93,0.4c0.77,0.42,1.81,1.22,2.73,2.5
							c0.95,1.27,1.72,3.01,2.37,4.95c0.67,1.94,1.3,4.11,2.49,6.13c2.35,4.08,5.94,6.68,8.7,7.97
							C261.06,440.52,263.01,440.74,262.98,440.85z"/>
					</g>
				</g>
			</g>
		</g>
	</g>
</g>
<g id="Character_2">
	<g>
		<g>
			<g>
				<g>
					<path class="st8" d="M365.44,465.47l-16.98-49.34l7.86-47.34c2.29-12.76,3.57-24.03,0.14-30.43
						c-9.17-17.13-20.23-18.66-35.36-22.59c-3.12-0.81-26.85-1.61-29.46-0.97c-20.59,2.31-33.77,13.22-40.97,30.96l-7.85,31.59
						l-10.77,33.04c-2.05,4.04-5.41,6.82-9.49,7.72L181,432.28l0.35,8.13L181,451.38L236.3,441c11.09-2.08,22.36-6.17,25.53-16.87
						l5.96-17.61c2.91,7.46,6.07,14.29,6.07,14.29l-4.04,44.43L365.44,465.47z"/>
				</g>
			</g>
			<g>
				<g>
					<g>
						<path class="st8" d="M351.2,377.81l-15.8,52.83c-2.45,8.19-8.84,14.6-17.01,17.08l-65.76,17.53l-8.71-22.7l59.44-22.09
							l14.59-52.91c0,0,3.37-29.57,30.12-28.05"/>
					</g>
				</g>
				<g>
					<g>
						<g>
							<path class="st8" d="M348.06,339.48c0,0-0.27,0.01-0.8,0.01c-0.53,0.02-1.31-0.06-2.34,0.02c-2.05,0.07-5.13,0.36-8.79,1.8
								c-1.82,0.72-3.77,1.73-5.67,3.18c-1.9,1.44-3.75,3.3-5.41,5.55c-3.29,4.5-5.88,10.55-6.93,17.52l0,0.02l0,0.01
								c-4.04,14.71-8.99,32.74-14.53,52.92l-0.03,0.12l-0.11,0.04c-18.24,6.79-38.32,14.26-59.43,22.11l0.15-0.34
								c0.49,1.28,1.02,2.65,1.55,4.04c2.45,6.39,4.87,12.7,7.16,18.67l-0.31-0.16c20.21-5.38,39.27-10.45,56.5-15.03
								c2.15-0.57,4.28-1.14,6.37-1.69c1.04-0.28,2.09-0.54,3.11-0.84c1.01-0.32,1.99-0.7,2.94-1.12c3.8-1.73,7.03-4.35,9.43-7.43
								c1.2-1.54,2.2-3.19,2.99-4.9c0.81-1.7,1.34-3.47,1.86-5.22c1.05-3.49,2.06-6.83,3.01-10.02c3.84-12.73,6.93-22.97,9.07-30.03
								c1.07-3.51,1.9-6.24,2.47-8.1c0.28-0.91,0.5-1.61,0.65-2.1c0.15-0.47,0.24-0.71,0.24-0.71s-0.06,0.25-0.19,0.72
								c-0.14,0.49-0.34,1.19-0.61,2.11c-0.55,1.87-1.35,4.6-2.38,8.12c-2.1,7.08-5.14,17.33-8.91,30.08
								c-0.95,3.19-1.94,6.54-2.98,10.03c-0.51,1.74-1.05,3.55-1.86,5.28c-0.8,1.73-1.81,3.42-3.03,4.98
								c-2.43,3.13-5.71,5.81-9.57,7.57c-0.97,0.44-1.96,0.82-2.99,1.15c-1.03,0.31-2.07,0.56-3.12,0.85
								c-2.09,0.56-4.22,1.13-6.37,1.7c-17.22,4.6-36.28,9.69-56.49,15.08l-0.22,0.06l-0.08-0.22c-2.29-5.97-4.71-12.27-7.17-18.67
								c-0.53-1.38-1.06-2.76-1.55-4.04l-0.09-0.25l0.25-0.09c21.12-7.84,41.2-15.3,59.45-22.07l-0.15,0.16
								c5.59-20.17,10.58-38.19,14.65-52.89l-0.01,0.03c1.09-7.06,3.72-13.11,7.06-17.65c1.69-2.26,3.56-4.13,5.49-5.57
								c1.93-1.45,3.91-2.46,5.75-3.17c3.7-1.42,6.8-1.68,8.86-1.72c1.03-0.07,1.82,0.03,2.35,0.02
								C347.79,339.46,348.06,339.48,348.06,339.48z"/>
						</g>
					</g>
				</g>
			</g>
			<g>
				<g>
					<g>
						<path class="st8" d="M306.63,408.57c0,0.04-0.28,0.06-0.79,0.06c-0.51,0.02-1.24-0.06-2.14-0.25
							c-1.78-0.37-4.17-1.41-6.24-3.29c-2.08-1.86-3.42-4.07-4.06-5.78c-0.18-0.42-0.3-0.81-0.39-1.16c-0.1-0.35-0.18-0.65-0.21-0.9
							c-0.08-0.5-0.1-0.78-0.07-0.79c0.1-0.02,0.28,1.09,1,2.71c0.71,1.62,2.05,3.72,4.07,5.53c2.01,1.82,4.28,2.87,5.98,3.32
							C305.51,408.48,306.63,408.46,306.63,408.57z"/>
					</g>
				</g>
			</g>
			<g>
				<g>
					<g>
						<path class="st8" d="M267.58,368.39c0.03,0.01-0.17,0.57-0.56,1.56c-0.38,0.99-0.97,2.41-1.63,4.19
							c-1.3,3.54-3.12,8.54-3.32,14.31c-0.08,2.87,0.32,5.6,1.09,7.97c0.74,2.38,1.76,4.4,2.71,6.02c0.96,1.63,1.86,2.87,2.5,3.71
							c0.63,0.85,1.01,1.3,0.97,1.33c-0.01,0.01-0.12-0.09-0.32-0.29c-0.19-0.2-0.48-0.51-0.82-0.91c-0.69-0.81-1.64-2.03-2.65-3.65
							c-1-1.62-2.07-3.66-2.85-6.07c-0.81-2.4-1.23-5.21-1.15-8.13c0.2-5.88,2.11-10.91,3.49-14.42c0.71-1.77,1.35-3.17,1.79-4.13
							C267.29,368.9,267.55,368.37,267.58,368.39z"/>
					</g>
				</g>
			</g>
			<g>
				<g>
					<g>
						<path class="st8" d="M309.14,427.49c-0.15,0.05-0.68-2.1-2.42-4.09c-1.71-2.02-3.77-2.85-3.69-3
							c0.02-0.06,0.57,0.07,1.36,0.48c0.8,0.41,1.82,1.14,2.72,2.18c0.9,1.04,1.47,2.17,1.76,3.01
							C309.16,426.92,309.2,427.47,309.14,427.49z"/>
					</g>
				</g>
			</g>
		</g>
		<g>
			<g>
				<path class="st15" d="M245.13,445.7c0,0-18.81,1.68-18.55,13.9l23.42-1.18L245.13,445.7z"/>
			</g>
		</g>
		<g>
			<g>
				<path class="st5" d="M275.45,240.93c-1.72,8.32-3.36,16.65-4.92,25c-1.98,10.59-3.8,21.64-0.81,31.99
					c1.64,5.68,4.66,10.84,7.65,15.93c1.68,2.87,3.52,5.89,6.5,7.36c4.05,2,9.18,0.42,12.4-2.75c3.22-3.17,4.87-7.59,5.98-11.97
					c2.17-8.54,2.64-17.41,2.98-26.22c0.34-8.89,0.53-17.95-1.95-26.49c-2.48-8.54-8.07-16.62-16.32-19.96"/>
			</g>
		</g>
		<g>
			<g>
				<path class="st5" d="M276.81,234.25c2.34-1.83,5.26-2.91,8.23-3.05c2.4-4.86,8.09-7.08,13.41-8.12
					c7.84-1.53,6.99-1.74,14.29,1.48s17.67,12.32,18.98,20.2c1.22,7.32,3.39,13.18,6.57,19.88c1.96,4.15,5.9,7.04,8.21,11
					c2.51,4.31,2.87,9.8,0.95,14.4c-1.89,4.51-5.87,8.48-5.5,13.35c0.22,2.82,0.12,4.85,1.23,7.45c3.79,8.84,2.02,20.63-6.14,25.73
					c-8.16,5.1-19.92,3.32-26.21-3.96c-5.46-6.32-6.52-15.35-5.97-23.68c0.54-8.34,2.43-16.62,1.89-24.96"/>
			</g>
		</g>
		<g>
			<g>
				<g>
					<g>
						<g>
							<g>
								<g>
									<g>
										<path class="st8" d="M286.15,465.24l-0.11-2.88l-42.41-4.47l-18.58-53.41l-79.57-1.8l24.07,62.56
											C208.89,465.54,247.77,465.55,286.15,465.24z"/>
									</g>
								</g>
							</g>
						</g>
						<g>
							<g>
								<g>
									<g>
										<path class="st1" d="M189.63,434.82c1.15,1.99,3.69,2.68,5.68,1.53c1.99-1.15,2.68-3.69,1.53-5.68
											c-1.15-1.99-3.69-2.68-5.68-1.53C189.17,430.28,188.48,432.83,189.63,434.82z"/>
									</g>
								</g>
							</g>
						</g>
					</g>
				</g>
			</g>
		</g>
		<g>
			<g>
				<g>
					<g>
						<g>
							<g>
								<g>
									<g>
										<g>
											<g>
												<g>
													<path class="st15" d="M305.46,336.42c9.54,0,18.12-8.13,17.84-20.21l1.72-68.99l0,0c0.06-2.99-2.18-5.53-5.16-5.85
														l-28.44-3.01c-9.8-1.04-18.47,6.3-19.09,16.14c-0.69,10.93-1.1,24.29,0.2,32.44c2.6,16.39,15.17,18.48,15.17,18.48
														l-0.31,11.45C286.91,329.08,296.04,336.42,305.46,336.42L305.46,336.42z"/>
												</g>
											</g>
										</g>
									</g>
								</g>
								<g>
									<g>
										<g>
											<g>
												<g>
													<g>
														<path class="st5" d="M278.69,263.4c-0.04,1.11,0.87,2.06,2.03,2.12c1.16,0.06,2.13-0.79,2.17-1.9
															c0.04-1.11-0.87-2.06-2.02-2.12C279.7,261.44,278.73,262.29,278.69,263.4z"/>
													</g>
												</g>
											</g>
										</g>
									</g>
									<g>
										<g>
											<g>
												<g>
													<g>
														<g>
															<path class="st5" d="M275.23,261.46c0.26,0.27,1.85-0.9,4.12-0.9c2.26-0.03,3.92,1.14,4.17,0.86
																c0.12-0.12-0.14-0.62-0.87-1.14c-0.71-0.52-1.93-1.03-3.33-1.03c-1.41,0.01-2.59,0.53-3.28,1.06
																C275.34,260.84,275.11,261.34,275.23,261.46z"/>
														</g>
													</g>
												</g>
											</g>
										</g>
									</g>
								</g>
								<g>
									<g>
										<g>
											<g>
												<g>
													<g>
														<path class="st5" d="M300.53,263.82c-0.04,1.11,0.87,2.06,2.03,2.12c1.16,0.06,2.13-0.79,2.17-1.9
															c0.04-1.11-0.87-2.06-2.03-2.12C301.54,261.87,300.56,262.71,300.53,263.82z"/>
													</g>
												</g>
											</g>
										</g>
									</g>
									<g>
										<g>
											<g>
												<g>
													<g>
														<g>
															<path class="st5" d="M297.47,261.88c0.26,0.27,1.86-0.9,4.12-0.9c2.26-0.03,3.92,1.14,4.17,0.86
																c0.12-0.12-0.14-0.62-0.87-1.14c-0.71-0.52-1.92-1.03-3.33-1.03c-1.41,0.01-2.59,0.53-3.28,1.06
																C297.58,261.26,297.34,261.76,297.47,261.88z"/>
														</g>
													</g>
												</g>
											</g>
										</g>
									</g>
								</g>
								<g>
									<g>
										<g>
											<g>
												<g>
													<g>
														<path class="st5" d="M289.26,278.66c0.01-0.13-1.4-0.37-3.67-0.66c-0.58-0.06-1.12-0.17-1.22-0.57
															c-0.14-0.42,0.11-1.04,0.39-1.71c0.54-1.4,1.11-2.86,1.71-4.4c2.37-6.26,4.09-11.41,3.84-11.51
															c-0.25-0.09-2.38,4.91-4.75,11.17c-0.57,1.54-1.12,3.02-1.64,4.42c-0.22,0.66-0.59,1.4-0.3,2.27
															c0.16,0.43,0.58,0.75,0.95,0.84c0.37,0.11,0.7,0.12,0.98,0.14C287.83,278.78,289.25,278.79,289.26,278.66z"/>
													</g>
												</g>
											</g>
										</g>
									</g>
								</g>
								<g>
									<g>
										<g>
											<g>
												<g>
													<path class="st16" d="M287.7,305.43c0,0,11.03,0.71,21.95-5.86c0,0-5.33,11.26-21.73,9.73L287.7,305.43z"/>
												</g>
											</g>
										</g>
									</g>
								</g>
								<g>
									<g>
										<g>
											<g>
												<g>
													<path class="st16" d="M290.22,284.11c0.81-1.08,2.24-1.67,3.65-1.51c0.98,0.11,1.97,0.58,2.57,1.38
														c0.6,0.8,0.72,1.93,0.18,2.7c-0.61,0.86-1.89,1.06-2.97,0.75c-1.08-0.31-2.01-1.02-2.89-1.73
														c-0.24-0.2-0.49-0.4-0.65-0.67c-0.15-0.27-0.18-0.62,0-0.84"/>
												</g>
											</g>
										</g>
									</g>
								</g>
								<g>
									<g>
										<g>
											<g>
												<g>
													<g>
														<path class="st5" d="M295.92,280.22c-0.37-0.02-0.37,2.43-2.47,4.18c-2.1,1.75-4.72,1.47-4.73,1.82
															c-0.03,0.15,0.58,0.48,1.69,0.51c1.08,0.04,2.67-0.31,3.95-1.38c1.28-1.07,1.83-2.49,1.92-3.5
															C296.36,280.82,296.08,280.21,295.92,280.22z"/>
													</g>
												</g>
											</g>
										</g>
									</g>
								</g>
							</g>
						</g>
					</g>
					<g>
						<g>
							<g>
								<g>
									<g>
										<path class="st5" d="M296.45,257.92c0.22,0.61,2.48,0.32,5.14,0.64c2.66,0.27,4.8,1.04,5.15,0.49
											c0.16-0.26-0.22-0.84-1.08-1.44c-0.86-0.59-2.23-1.16-3.82-1.34c-1.59-0.17-3.05,0.08-4.02,0.47
											C296.85,257.15,296.36,257.63,296.45,257.92z"/>
									</g>
								</g>
							</g>
						</g>
					</g>
					<g>
						<g>
							<g>
								<g>
									<g>
										<path class="st5" d="M276.07,254.91c0.4,0.51,1.96-0.02,3.83-0.04c1.87-0.09,3.46,0.35,3.83-0.19
											c0.16-0.26-0.09-0.78-0.78-1.26c-0.68-0.48-1.83-0.88-3.11-0.84c-1.29,0.04-2.4,0.51-3.05,1.03
											C276.11,254.13,275.89,254.66,276.07,254.91z"/>
									</g>
								</g>
							</g>
						</g>
					</g>
				</g>
			</g>
			<g>
				<g>
					<path class="st8" d="M272.67,251.78c6.16-3.58,12.18-6.89,16.03-12.89c2.13,6.01,6.29,8.98,11.81,12.18
						c5.52,3.2,11.69,5.06,17.8,6.89c-3.09,3-3.5,7.85-2.79,12.1c0.71,4.25,2.34,8.34,2.61,12.64c0.35,5.74-1.74,11.37-1.88,17.13
						c-0.18,7.88,3.3,15.33,6.71,22.44l14.81-8.63l-2.13-38.46l0.18-27.21l-23.08-21.45l-29.25,3.2L272.67,251.78z"/>
				</g>
			</g>
		</g>
		<g>
			<g>
				<g>
					<g>
						<path class="st12" d="M269.38,332.63c7.51,7.6,6.72,21.13,14.97,27.91c5.06,4.16,12.45,4.55,18.66,2.45
							c6.21-2.1,11.44-6.35,16.22-10.82c4.79-4.47,9.32-9.29,14.77-12.93c5.3-3.53,14.35-5.7,15.63-11.94
							c0.94-4.57-3.85-10.05-4.76-14.63c-1.43-7.26,6.42-12.87,7.73-20.15c2.62-14.54-5.06-31.62-13.05-44.05
							c-8-12.43-12.49-26.33-32.77-27.5c-18.15-0.81-30.52,7.9-36.55,20.49c-3.03,6.32-3.74,13.46-4.32,20.44
							c-1.37,16.3-2.13,33.57,5.4,48.1c1.56,3.01,3.42,6.82,1.32,9.48c-1.92,2.43-6.28,2.33-7.49,5.19
							C263.87,327.62,267.12,330.34,269.38,332.63z M291.97,236.01c2.43-0.1,9.63,0,17.68,10.71c4.81,6.41,4.81,16.79,4.7,25.84
							c-0.08,6.73,0,23.76,0,23.76s1.07,21.5-6.24,23.41c-8.97,2.34-16.83,0.73-23.54-5.66c-6.71-6.39-10.56-15.36-12.08-24.5
							c-1.53-9.14-2.39-18.46-1.19-27.65c0.71-5.44,2.47-11.36,5.5-15.93C282.86,236.84,291.97,236.01,291.97,236.01z"/>
					</g>
				</g>
				<g class="st17">
					<g>
						<g>
							<path class="st12" d="M348.06,320.27c-6.01,3.26-10.15,8.11-15.03,12.89c-4.89,4.78-10.33,9.41-16.95,11.12
								c-6.62,1.71-14.67-0.33-17.98-6.31c18.77,3.19,40.56-11.8,46.97-29.73c0,0-0.71,2.55-0.1,4.76S348.06,320.27,348.06,320.27z"
								/>
						</g>
					</g>
				</g>
				<g class="st17">
					<g>
						<g>
							<path class="st12" d="M273.43,315.32c1.22,4.73,4.71,9.25,9.07,11.46c0.99,0.5,2.05,0.92,2.86,1.68
								c0.81,0.76,1.32,1.98,0.87,3c-0.5,1.14-2.02,1.53-3.22,1.18c-1.2-0.35-2.15-1.25-3.05-2.12c-3.27-3.16-6.64-6.35-7.56-10.8
								c0,0,0.97-1.18,1.09-2.23C273.6,316.47,273.43,315.32,273.43,315.32z"/>
						</g>
					</g>
				</g>
			</g>
			<g>
				<g>
					<g>
						<path class="st12" d="M343.57,311.8c0.02,0.01-0.08,0.21-0.28,0.58c-0.21,0.37-0.48,0.93-0.91,1.62
							c-0.82,1.39-2.11,3.34-3.87,5.62c-1.77,2.27-4.04,4.88-6.85,7.47c-2.82,2.57-6.19,5.16-10.2,7.07
							c-2.03,0.91-4.07,1.58-6.07,2.17c-2,0.58-3.96,1.01-5.85,1.3c-3.78,0.62-7.25,0.62-10.13,0.38c-2.88-0.28-5.17-0.81-6.71-1.28
							c-0.78-0.21-1.36-0.45-1.76-0.59c-0.4-0.15-0.6-0.23-0.6-0.25c0.02-0.05,0.86,0.24,2.41,0.64c1.55,0.42,3.83,0.88,6.69,1.11
							c2.85,0.2,6.29,0.15,10.02-0.48c1.87-0.3,3.81-0.74,5.79-1.32c1.97-0.58,4.01-1.26,5.99-2.15c3.94-1.87,7.28-4.42,10.09-6.95
							c2.81-2.55,5.08-5.11,6.88-7.34c1.79-2.24,3.12-4.15,3.99-5.5c0.45-0.66,0.76-1.21,0.99-1.56
							C343.43,311.98,343.56,311.79,343.57,311.8z"/>
					</g>
				</g>
			</g>
			<g>
				<g>
					<g>
						<path class="st12" d="M297.54,330.35c0.01,0.03-0.41,0.16-1.19,0.31c-0.78,0.15-1.92,0.29-3.35,0.3
							c-2.83,0.03-6.86-0.66-10.62-2.92c-3.76-2.26-6.27-5.49-7.57-8c-0.66-1.26-1.08-2.34-1.31-3.09c-0.23-0.76-0.32-1.19-0.29-1.2
							c0.1-0.04,0.53,1.68,1.92,4.11c1.36,2.42,3.86,5.53,7.52,7.73c3.66,2.2,7.58,2.93,10.36,2.99
							C295.81,330.67,297.53,330.24,297.54,330.35z"/>
					</g>
				</g>
			</g>
			<g>
				<g>
					<g>
						<path class="st12" d="M293.65,355.13c0-0.02,0.2-0.07,0.58-0.15c0.38-0.09,0.96-0.17,1.68-0.35c1.46-0.31,3.55-0.84,6.07-1.69
							c5.05-1.67,11.71-4.96,18.27-9.77c6.57-4.8,11.9-9.92,15.75-13.61c1.88-1.82,3.41-3.32,4.53-4.41
							c0.51-0.48,0.92-0.88,1.24-1.19c0.29-0.27,0.45-0.4,0.46-0.39c0.01,0.01-0.12,0.17-0.38,0.46c-0.31,0.33-0.7,0.74-1.18,1.26
							c-1.03,1.08-2.53,2.64-4.42,4.53c-3.78,3.76-9.1,8.94-15.7,13.77c-6.6,4.83-13.34,8.1-18.46,9.69
							c-2.55,0.82-4.67,1.29-6.15,1.54c-0.73,0.14-1.32,0.2-1.7,0.25C293.85,355.13,293.65,355.15,293.65,355.13z"/>
					</g>
				</g>
			</g>
		</g>
	</g>
</g>
<g id="Character_3">
	<g>
		<g>
			<g>
				<g>
					<path class="st8" d="M645.81,376.11l-35.28-41.61l-0.08,0.08c-1.39-1.37-2.61-2.59-3.23-3.3
						c-12.23-14.16-21.94-18.96-40.64-19.26h0l-36.36,0.79c-6.76,0.55-22.1-2.34-36.29,16.47l-0.02-0.04
						c-25.84,32.39-46.58,59.94-45.41,72.94c1.48,16.45,64.22,63.36,64.22,63.36l86.23-0.08l-0.18-6.57l37.2-24.11
						c13.42-9.07,20.43-16.99,22.13-29.01C659.62,395.11,653.04,384.11,645.81,376.11z M487.85,400.87
						c0-2.53,13.6-18.48,21.02-26.99l3.86,36.83l-0.7,14.38L487.85,400.87z M597.26,423.54l-2.09-48.52l0,0l28.12,29.09
						L597.26,423.54z"/>
				</g>
			</g>
			<g>
				<g>
					<g>
						<g>
							<path class="st0" d="M566.95,444.3l-63.75,31.5c-1.69,0.84-3.74,0.14-4.58-1.55l-20.6-41.7c-0.84-1.69-0.14-3.74,1.55-4.58
								l63.75-31.5c1.69-0.84,3.74-0.14,4.58,1.55l20.6,41.7C569.34,441.42,568.64,443.47,566.95,444.3z"/>
						</g>
					</g>
					<g>
						<g>
							<path class="st1" d="M522.96,432.19c1.86-1.14,4.29-0.56,5.43,1.3s0.56,4.29-1.3,5.43c-1.86,1.14-4.29,0.56-5.43-1.3
								C520.52,435.76,521.1,433.33,522.96,432.19z"/>
						</g>
					</g>
				</g>
				<g>
					<g>
						<g>
							<path class="st5" d="M594.63,340.46c0.01,0,0.02,0.11,0.03,0.32c0.01,0.24,0.02,0.54,0.03,0.93
								c0.01,0.85,0.03,2.05,0.05,3.57c0.02,3.14,0.05,7.62,0.09,13.15c0.06,11.1,0.49,26.42,1.35,43.34
								c0.85,16.92,1.74,32.23,2.21,43.32c0.25,5.55,0.41,10.03,0.49,13.14c0.04,1.52,0.07,2.72,0.09,3.57
								c0,0.39,0.01,0.69,0.01,0.93c0,0.21-0.01,0.32-0.01,0.32c-0.01,0-0.02-0.11-0.04-0.32c-0.02-0.24-0.04-0.54-0.06-0.93
								c-0.04-0.85-0.11-2.05-0.18-3.57c-0.16-3.14-0.38-7.61-0.66-13.13c-0.61-11.11-1.44-26.41-2.36-43.32
								c-0.86-16.92-1.24-32.26-1.2-43.36c0.03-5.52,0.06-10.01,0.07-13.15c0.02-1.52,0.04-2.72,0.05-3.57
								c0.01-0.39,0.02-0.69,0.03-0.93C594.62,340.57,594.62,340.46,594.63,340.46z"/>
						</g>
					</g>
				</g>
				<g>
					<g>
						<g>
							<path class="st8" d="M504.84,318.71c4.6-3.34,9.95-2.33,14.56,1c4.61,3.33,7.17,9,7.64,14.67s-0.98,11.35-3.15,16.61
								c-3.47,8.43-8.61,15.25-16.27,23.94l-19.76,25.95l38.14,37.24l-15.8,24.94l-31.94-25.7c-10.9-9.21-20.19-18.63-27-28.38"/>
						</g>
					</g>
					<g>
						<g>
							<g>
								<path class="st8" d="M451.24,408.97c0,0,0.09,0.1,0.24,0.3c0.16,0.21,0.38,0.51,0.67,0.9c0.59,0.8,1.47,1.97,2.66,3.46
									c2.37,2.99,6.02,7.23,11.03,12.2c2.51,2.49,5.36,5.15,8.54,7.95c3.15,2.83,6.76,5.65,10.56,8.7
									c7.61,6.1,16.14,12.96,25.4,20.38l-0.35,0.06c4.91-7.75,10.23-16.17,15.79-24.95l0.04,0.32
									c-6.36-6.2-12.94-12.63-19.68-19.2c-6.32-6.17-12.5-12.21-18.46-18.03l-0.16-0.16l0.14-0.18
									c6.98-9.15,13.61-17.85,19.78-25.94l0.01-0.01l0.01-0.01c3.86-4.37,7.46-8.68,10.44-13.11c3-4.42,5.28-8.99,6.87-13.49
									c1.59-4.5,2.38-8.98,2.15-13.12c-0.21-4.14-1.5-7.86-3.37-10.74c-1.87-2.91-4.39-4.87-6.78-6.08
									c-2.4-1.23-4.74-1.6-6.59-1.46c-1.86,0.16-3.21,0.74-4.05,1.2c-0.85,0.46-1.25,0.77-1.27,0.75c0,0,0.1-0.08,0.3-0.22
									c0.21-0.14,0.5-0.37,0.93-0.59c0.84-0.48,2.19-1.09,4.08-1.28c1.87-0.17,4.26,0.19,6.7,1.41c2.43,1.2,5,3.17,6.92,6.12
									c1.92,2.92,3.24,6.68,3.48,10.88c0.25,4.19-0.54,8.73-2.12,13.27c-1.59,4.54-3.87,9.15-6.88,13.6
									c-2.99,4.46-6.59,8.8-10.45,13.18l0.01-0.01c-6.16,8.09-12.78,16.8-19.75,25.96l-0.02-0.34
									c5.96,5.82,12.15,11.86,18.47,18.03c6.74,6.58,13.32,13.01,19.67,19.21l0.15,0.14l-0.11,0.17
									c-5.57,8.77-10.9,17.18-15.82,24.93l-0.14,0.22l-0.21-0.17c-9.24-7.45-17.76-14.32-25.35-20.45
									c-3.79-3.06-7.39-5.9-10.54-8.75c-3.17-2.82-6.01-5.51-8.51-8.01c-5-5.01-8.62-9.28-10.95-12.31
									c-1.18-1.5-2.04-2.7-2.6-3.51c-0.28-0.4-0.49-0.7-0.64-0.92C451.3,409.08,451.24,408.97,451.24,408.97z"/>
							</g>
						</g>
					</g>
				</g>
				<g>
					<g>
						<g>
							<path class="st5" d="M636.96,403.4c-0.04,0.08-0.77-0.25-2-0.62c-1.23-0.37-2.97-0.73-4.92-0.63
								c-1.94,0.1-3.64,0.65-4.82,1.14c-1.18,0.5-1.88,0.9-1.92,0.83c-0.03-0.05,0.6-0.56,1.77-1.16c1.17-0.59,2.92-1.22,4.95-1.33
								c2.03-0.1,3.84,0.34,5.06,0.8C636.3,402.9,636.98,403.35,636.96,403.4z"/>
						</g>
					</g>
				</g>
				<g>
					<g>
						<g>
							<g>
								<path class="st18" d="M533.81,461.88c-1,0.5-4.08,2.03-6.94,3.45c-3.44,1.71-7.56,1.25-10.54-1.18l-4.34-3.54l12-18.87
									c1.41,0.62,7.2,1.43,9.2,2.14c1.73,0.61,3.56,0.91,5.4,0.91c1.94,0,4.44-0.1,6.1-0.5c0.14-0.05,0.31-0.09,0.43-0.14
									c0.29-0.13,0.57-0.17,0.85-0.17c1.72-0.15,3.08,1.64,2.12,3.06c-0.98,1.45-5.65,3.3-11.62,3.13c-0.09,0-0.18,0.01-0.28,0.01
									c-5.25-0.01-0.44,4.39,2.68,7c1.1,0.92,1.72,2.33,1.5,3.75c-0.08,0.54-0.29,1.03-0.7,1.29
									C538.33,463.05,533.81,461.88,533.81,461.88z"/>
							</g>
						</g>
					</g>
				</g>
			</g>
		</g>
		<g>
			<g>
				<g>
					<g>
						<g>
							<g>
								<g>
									<g>
										<g>
											<g>
												<g>
													<path class="st18" d="M549.87,329.4c-9.2,0-17.47-7.84-17.39-19.52l-1.66-66.52l0.19,0.03
														c-0.06-2.89,2.1-5.33,4.97-5.64l27.42-2.9c9.45-1,17.81,6.08,18.41,15.56c0.66,10.53,1.06,23.42-0.19,31.28
														c-2.51,15.8-14.62,17.82-14.62,17.82l0.3,11.04C567.76,322.32,558.95,329.4,549.87,329.4L549.87,329.4z"/>
												</g>
											</g>
										</g>
									</g>
								</g>
								<g>
									<g>
										<g>
											<g>
												<g>
													<g>
														<path class="st5" d="M575.68,259c0.04,1.07-0.84,1.98-1.95,2.04c-1.11,0.06-2.05-0.76-2.09-1.83
															c-0.04-1.07,0.84-1.99,1.95-2.05C574.71,257.11,575.64,257.93,575.68,259z"/>
													</g>
												</g>
											</g>
										</g>
									</g>
									<g>
										<g>
											<g>
												<g>
													<g>
														<g>
															<path class="st5" d="M579.01,257.12c-0.25,0.26-1.79-0.87-3.97-0.87c-2.18-0.03-3.78,1.1-4.02,0.83
																c-0.12-0.12,0.14-0.6,0.84-1.1c0.69-0.51,1.86-1,3.21-0.99c1.36,0.01,2.5,0.51,3.16,1.02
																C578.91,256.53,579.14,257.01,579.01,257.12z"/>
														</g>
													</g>
												</g>
											</g>
										</g>
									</g>
								</g>
								<g>
									<g>
										<g>
											<g>
												<g>
													<g>
														<path class="st5" d="M554.63,259.4c0.04,1.07-0.84,1.98-1.95,2.04c-1.11,0.06-2.05-0.76-2.09-1.83
															c-0.04-1.07,0.84-1.99,1.95-2.05C553.65,257.51,554.59,258.33,554.63,259.4z"/>
													</g>
												</g>
											</g>
										</g>
									</g>
									<g>
										<g>
											<g>
												<g>
													<g>
														<g>
															<path class="st5" d="M557.57,257.53c-0.25,0.26-1.79-0.87-3.97-0.87c-2.18-0.03-3.78,1.1-4.02,0.83
																c-0.12-0.12,0.14-0.59,0.84-1.1c0.69-0.51,1.86-1,3.21-0.99c1.36,0.01,2.5,0.51,3.16,1.02
																C557.47,256.93,557.7,257.41,557.57,257.53z"/>
														</g>
													</g>
												</g>
											</g>
										</g>
									</g>
								</g>
								<g>
									<g>
										<g>
											<g>
												<g>
													<g>
														<path class="st5" d="M565.49,273.71c-0.01-0.12,1.35-0.36,3.54-0.64c0.56-0.06,1.08-0.17,1.18-0.55
															c0.13-0.4-0.1-1-0.37-1.65c-0.52-1.35-1.07-2.76-1.65-4.24c-2.29-6.04-3.94-11-3.7-11.09
															c0.24-0.09,2.3,4.73,4.58,10.77c0.55,1.49,1.08,2.91,1.58,4.27c0.21,0.63,0.57,1.35,0.29,2.19
															c-0.15,0.42-0.56,0.72-0.92,0.81c-0.36,0.11-0.67,0.11-0.95,0.13C566.87,273.82,565.5,273.83,565.49,273.71z"/>
													</g>
												</g>
											</g>
										</g>
									</g>
								</g>
								<g>
									<g>
										<g>
											<g>
												<g>
													<path class="st19" d="M567,299.52c0,0-10.63,0.69-21.17-5.65c0,0,5.48,11.89,21.29,10.41L567,299.52z"/>
												</g>
											</g>
										</g>
									</g>
								</g>
							</g>
						</g>
					</g>
					<g>
						<g>
							<g>
								<g>
									<g>
										<path class="st5" d="M558.55,253.71c-0.22,0.59-2.39,0.31-4.95,0.62c-2.57,0.26-4.63,1.01-4.97,0.47
											c-0.15-0.25,0.21-0.81,1.04-1.39c0.83-0.57,2.15-1.12,3.68-1.29c1.54-0.17,2.94,0.08,3.87,0.46
											C558.17,252.96,558.65,253.43,558.55,253.71z"/>
									</g>
								</g>
							</g>
						</g>
					</g>
					<g>
						<g>
							<g>
								<g>
									<g>
										<path class="st5" d="M578.21,250.81c-0.38,0.5-1.89-0.02-3.69-0.04c-1.81-0.09-3.34,0.33-3.69-0.19
											c-0.15-0.25,0.09-0.75,0.76-1.22c0.66-0.47,1.76-0.85,3-0.81c1.24,0.04,2.32,0.49,2.95,1
											C578.17,250.06,578.38,250.57,578.21,250.81z"/>
									</g>
								</g>
							</g>
						</g>
					</g>
				</g>
			</g>
		</g>
		<g>
			<g>
				<path class="st20" d="M531.01,258.48c2.68-0.48,4.84,0.35,5.59,2.97c1.14,3.95,0.36,5.9,0.56,8.62c1.33-0.4,2.66-0.8,3.99-1.2
					c-0.99-9.11,1.27-15.85,0.28-24.97c5.56,1.8,13.2-1.63,15.57-7.4c4.65,3.53,11.41,4,16.5,1.16c1.47,2.79,4.83,3.73,6.79,3.18
					c3.03-0.85,6.18-5.12,7.05-8.14c1.56-5.45,0.8-13.27-3.62-16.82c-4.42-3.55-13.28-2.7-16.73,1.81
					c-1.36,1.78-1.52,5.07-3.71,5.52c-1.94,0.4-3.72-1.04-5.49-1.92c-5.55-2.74-13.22,0.9-14.59,6.94
					c-4.64-2.77-10.26-4.57-15.45-3.08c-5.19,1.49-9.33,7.24-7.56,12.35c0.74,2.13,2.38,3.98,2.56,6.23
					c0.35,4.35-4.86,8.29-3.2,12.33c0.93,2.26,3.66,3.26,4.89,5.37c1.38,2.36,0.52,5.33,0.64,8.07c0.19,4.56,2.52,11.31,6.89,12.61"
					/>
			</g>
		</g>
		<g>
			<g>
				<g>
					<path class="st18" d="M531.41,258.43c-1.63,0.16-2.4,1.23-3.02,2.41c-0.62,1.19-0.82,2.55-0.82,3.89
						c0,2.08,0.52,4.24,1.91,5.79c1.38,1.55,3.76,2.32,5.64,1.44"/>
				</g>
			</g>
			<g>
				<g>
					<g>
						<path class="st19" d="M534.14,268.53c0.02,0.05-0.59,0.27-1.52-0.06c-0.45-0.17-0.96-0.49-1.37-1
							c-0.4-0.51-0.68-1.2-0.73-1.95c-0.06-0.74,0.1-1.46,0.41-2.03c0.3-0.57,0.72-0.99,1.12-1.26c0.81-0.55,1.45-0.51,1.45-0.45
							c0.02,0.08-0.56,0.18-1.23,0.75c-0.67,0.54-1.35,1.64-1.23,2.96c0.08,1.33,0.94,2.3,1.73,2.65
							C533.55,268.51,534.14,268.44,534.14,268.53z"/>
					</g>
				</g>
			</g>
		</g>
		<g>
			<g>
				<path class="st4" d="M558.55,281.43c1.95,1.37,5.78,0.64,7.2-1.38c-3.05-1.66-5.86-3.74-8.35-6.15
					C557.39,273.9,554.55,278.62,558.55,281.43z"/>
			</g>
		</g>
		<g>
			<g>
				<g>
					<path class="st16" d="M565.01,286.05c-0.09,0.12-1.09-0.61-2.54-0.6c-1.45-0.03-2.46,0.7-2.55,0.58
						c-0.04-0.05,0.15-0.31,0.6-0.58c0.44-0.27,1.15-0.52,1.95-0.51c0.8,0.01,1.51,0.25,1.94,0.53
						C564.86,285.73,565.06,286,565.01,286.05z"/>
				</g>
			</g>
		</g>
	</g>
</g>
<g id="Character_4">
	<g>
		<g>
			<g>
				<g>
					<g>
						<path class="st21" d="M540.67,350.08c4.42-6.17,9.27-15.17,11.49-19.4c4.13-7.88,3.44-8.28,2.44-8.63
							c-2.66-0.94-7.79,13.57-8.48,9.77c-0.69-3.8,8.31-16.97,5.48-17.84c-3.68-1.13-8.77,14.17-9.29,15.43
							c-0.51,1.22-2.35,0.5-1.81-0.61c0.77-1.6,8.43-18.59,4.82-19.73c-2-0.64-2.72,3.1-2.72,3.1s-6.01,16.46-7.69,15.86
							c-1.71-0.61,1.5-10.4,2.81-13.61c1.3-3.18,0.33-5.13-1.54-4.57c-1.28,0.38-5.52,10.14-6.74,13.35
							c-1.22,3.21-4.42,12.1-6.37,6.35c-0.03-0.09-0.07-0.17-0.1-0.26c-1.76-5.71-5.01-9.54-6.7-10c-1.65-0.45-2.91,1.41-2.21,2.98
							c0.09,0.26,0.22,0.52,0.44,0.75c0.09,0.1,0.18,0.25,0.27,0.36c0.92,1.45,1.81,3.78,2.44,5.62c0.59,1.74,0.9,3.56,0.87,5.4
							c-0.03,2.12,1.05,8.33,0.92,9.86"/>
					</g>
				</g>
			</g>
		</g>
		<g>
			<g>
				<g>
					<g>
						<path class="st12" d="M518.03,342.04l-24.19,47.97c0,0-13.68-39.57-21.06-55.32c-2.82-6.01-8.45-10.16-13.86-12.92v-0.11
							c-0.38-0.16-0.75-0.3-1.13-0.45c-6.04-2.89-11.55-4.06-12.19-4.19c-25.52-7.3-49.57-4.75-77.4,4.98
							c0,0-14.45,3.89-21.45,22.74c-6.31,16.98-13.37,42.97-14.58,47.59c-8.67,29.18,3.71,45.43,20.94,43.43
							c7.1-1.12,13.14-6.96,15.81-9.28l9.11-8.56l0.2,6.63l-10.19,40.94l104.74-0.22l-18.9-48.5l4.19-22.23l7.19,17.09
							c4.57,10.87,15.11,18.04,26.9,18.32c12.01,0.28,23.03-6.66,27.97-17.61l24.5-61.66L518.03,342.04z"/>
					</g>
				</g>
				<g>
					<g>
						<g>
							<path class="st12" d="M391.87,401.84c0.03,0.02-0.31,0.5-0.94,1.35c-0.64,0.84-1.58,2.05-2.79,3.5
								c-2.41,2.92-5.88,6.82-9.92,10.95c-4.03,4.13-7.87,7.68-10.75,10.14c-1.43,1.23-2.62,2.2-3.46,2.84
								c-0.84,0.64-1.31,0.99-1.33,0.96c-0.02-0.03,0.41-0.42,1.21-1.12c0.8-0.69,1.95-1.7,3.35-2.96
								c2.81-2.52,6.59-6.11,10.62-10.23c4.02-4.12,7.53-7.97,10.01-10.82c1.24-1.42,2.23-2.59,2.91-3.39
								C391.45,402.25,391.84,401.82,391.87,401.84z"/>
						</g>
					</g>
				</g>
				<g>
					<g>
						<g>
							<path class="st12" d="M454.18,415.23c-0.02,0,0-0.2,0.06-0.56c0.07-0.42,0.16-0.94,0.27-1.59c0.27-1.45,0.64-3.41,1.08-5.82
								c0.92-4.91,2.18-11.69,3.19-19.24c0.25-1.89,0.48-3.73,0.68-5.52c0.21-1.79,0.38-3.49,0.29-5.13
								c-0.15-3.28-0.76-6.2-1.29-8.63c-0.54-2.43-1.04-4.39-1.31-5.77c-0.14-0.69-0.22-1.23-0.26-1.59
								c-0.03-0.37-0.03-0.56-0.02-0.56c0.02,0,0.06,0.19,0.12,0.55c0.07,0.36,0.19,0.89,0.36,1.56c0.33,1.35,0.88,3.3,1.47,5.73
								c0.57,2.43,1.23,5.36,1.41,8.69c0.1,1.66-0.05,3.43-0.26,5.21c-0.19,1.79-0.42,3.64-0.67,5.53
								c-1.01,7.56-2.33,14.35-3.34,19.24c-0.51,2.39-0.94,4.35-1.25,5.78c-0.15,0.63-0.27,1.15-0.36,1.57
								C454.25,415.05,454.19,415.24,454.18,415.23z"/>
						</g>
					</g>
				</g>
				<g>
					<g>
						<g>
							<path class="st12" d="M491.68,401.74c-0.14-0.03,0.23-2.66,0.83-5.88c0.6-3.22,1.2-5.81,1.34-5.78
								c0.14,0.03-0.23,2.66-0.83,5.88C492.42,399.17,491.82,401.76,491.68,401.74z"/>
						</g>
					</g>
				</g>
				<g>
					<g>
						<g>
							<path class="st12" d="M495.37,403.16c-0.14,0.02-0.61-3-1.04-6.75c-0.43-3.74-0.67-6.79-0.53-6.81
								c0.14-0.02,0.61,3,1.04,6.75C495.28,400.09,495.51,403.14,495.37,403.16z"/>
						</g>
					</g>
				</g>
				<g>
					<g>
						<g>
							<path class="st12" d="M418.11,465.28c-0.14,0-0.26-16.08-0.26-35.9c0-19.83,0.12-35.91,0.26-35.91
								c0.14,0,0.26,16.07,0.26,35.91C418.37,449.2,418.25,465.28,418.11,465.28z"/>
						</g>
					</g>
				</g>
				<g class="st22">
					<g>
						<g>
							<path class="st12" d="M457.41,363.73c4.9,9.41,9.18,18.78,9.57,29.38c0.3,8.25-3,15.13,0.41,22.65
								c-0.16,0.13-3.08-6.35-4.36-9.39c-2.65-6.26-4.98-11.85-4.98-11.85s1.82-14.14,1.97-16.54
								C460.16,375.57,457.41,363.73,457.41,363.73z"/>
						</g>
					</g>
				</g>
				<g class="st22">
					<g>
						<g>
							<path class="st12" d="M335.88,411.54c0,4.72-2.94-10.86-0.19-14.7c1.92-2.68,5.23-3.97,8.43-4.78c3.2-0.81,6.55-1.32,9.39-3
								c3.67-2.17,5.98-5.97,8.57-9.35c2.58-3.39,5.99-17.75,10.24-18.06v20.97c-9.99,6.29-20.56,12.61-31.62,17.73
								C340.7,400.36,335.88,404.16,335.88,411.54z"/>
						</g>
					</g>
				</g>
				<g class="st22">
					<g>
						<g>
							<path class="st12" d="M378.03,417.93c6.84-3.85,11.85-8.96,19.59-10.33c7.45-1.32,15.12,0.04,22.67-0.51
								c-0.42-3.82-0.83-7.63-1.25-11.45l-21.58-0.24L378.03,417.93z"/>
						</g>
					</g>
				</g>
				<g>
					<g>
						<g>
							<path class="st12" d="M372.32,361.4c0.14,0,0.26,4.67,0.26,10.44c0,5.77-0.12,10.44-0.26,10.44c-0.14,0-0.26-4.67-0.26-10.44
								C372.06,366.07,372.17,361.4,372.32,361.4z"/>
						</g>
					</g>
				</g>
				<g>
					<g>
						<g>
							<path class="st12" d="M335.86,411.43c-0.06,0-0.18-0.7-0.11-1.86c0.06-1.15,0.36-2.74,1.06-4.37
								c0.7-1.62,1.66-2.93,2.45-3.77c0.79-0.84,1.39-1.24,1.43-1.19c0.13,0.11-2.06,1.99-3.4,5.17
								C335.89,408.56,336.02,411.44,335.86,411.43z"/>
						</g>
					</g>
				</g>
				<g>
					<g>
						<g>
							<path class="st12" d="M340.17,400.56c0.02,0.04,0.58-0.17,1.58-0.58c1-0.4,2.43-1.02,4.19-1.82c3.5-1.6,8.27-3.99,13.33-6.96
								c5.07-2.97,9.47-5.95,12.56-8.22c1.55-1.13,2.78-2.07,3.61-2.75c0.84-0.67,1.29-1.06,1.26-1.09c-0.02-0.03-0.52,0.3-1.4,0.91
								c-0.96,0.67-2.21,1.55-3.72,2.6c-3.15,2.18-7.57,5.09-12.62,8.06c-5.05,2.96-9.76,5.39-13.22,7.08
								c-1.66,0.8-3.04,1.47-4.1,1.98C340.68,400.25,340.15,400.53,340.17,400.56z"/>
						</g>
					</g>
				</g>
			</g>
			<g>
				<g>
					<g>
						<g>
							<path class="st23" d="M471.57,271.82c-1.72-2.25-4.45-3.96-4.96-6.74c-0.69-3.69,2.96-7.15,2.32-10.85
								c-0.44-2.53-2.77-4.31-5.14-5.29c-2.37-0.98-4.97-1.46-7.18-2.76c-2.66-1.57-4.54-4.22-5.73-7.06
								c-0.33-0.79-0.61-1.6-0.85-2.42c-0.27-1.76-0.59-3.55-1.21-5.19c-0.08-0.44-0.17-0.88-0.25-1.32l0.11,0.97
								c-0.34-0.83-0.75-1.62-1.3-2.35c-1.83-2.44-5.49-3.8-8.01-2.08l1.2-0.81c-2.95-7.33-10-12.86-17.82-13.97
								c-1.5-0.21-3.02-0.26-4.52-0.15c-5.39-0.28-13.18,1.3-16.47,3.38c-4.2,2.66-8.5,6.32-10.61,10.82
								c-1.14,2.43-1.9,5.24-4.04,6.86c-2.86,2.16-6.88,1.32-10.44,1.73c-5.88,0.66-10.98,5.18-13,10.74
								c-2.02,5.57-1.16,11.95,1.64,17.17c0.62,1.15,1.35,2.48,0.86,3.7c-0.38,0.94-1.37,1.46-2.25,1.96
								c-2.32,1.33-4.45,3.21-5.45,5.69c-1,2.48-0.62,5.64,1.4,7.4c1.64,1.43,4.06,1.64,6.11,0.88c-0.58,1.51-0.93,3.1-0.94,4.72
								c-0.01,3.53,1.78,7.16,4.91,8.79c3.13,1.63,7.51,0.77,9.36-2.24c-0.03,4.41,2.52,8.75,6.4,10.87
								c3.87,2.12,8.9,1.92,12.6-0.49c1.48-0.97,3.01-2.32,4.75-2.04c1.71,0.27,2.74,1.97,3.94,3.22c3.2,3.33,8.66,3.72,12.87,1.82
								c4.21-1.9,7.31-5.67,9.54-9.71c1.54,2.31,4.46,3.62,7.22,3.24c2.75-0.39,5.2-2.45,6.05-5.1c3.71,4.75,11.07,6.13,16.25,3.06
								c3.52-2.09,5.72-6.06,6.01-10.13c3.29-0.52,6.31-2.7,7.74-5.72C474.27,279.03,473.83,274.78,471.57,271.82z M371.01,274.91
								c0-0.02,0.01-0.04,0.01-0.06c0,0,0.04-0.02,0.11-0.04C371.09,274.84,371.05,274.87,371.01,274.91z"/>
						</g>
					</g>
				</g>
				<g>
					<g>
						<g>
							<g>
								<g>
									<g>
										<g>
											<path class="st21" d="M434.44,300.04c0,0,12.8-2.13,15.46-18.83c1.32-8.31,0.9-21.93,0.2-33.06
												c-0.63-10.02-9.47-17.5-19.46-16.45l-28.98,3.07c-3.03,0.32-5.32,2.91-5.26,5.96l3.05,72.58
												c-2.11,0.45-6.9,1.5-9.25,2.18c0,0,22.42,50.11,27.91,49.52c5.49-0.58,27.43-47.99,27.43-47.99s-4.67-1.49-11.62-2.85
												C433.8,306.49,434.44,300.04,434.44,300.04z"/>
										</g>
									</g>
									<g>
										<g>
											<g>
												<g>
													<g>
														<g>
															<path class="st5" d="M443.62,257.21c0.04,1.13-0.89,2.1-2.07,2.16c-1.18,0.06-2.17-0.8-2.21-1.93
																c-0.04-1.13,0.88-2.1,2.06-2.16C442.59,255.22,443.58,256.08,443.62,257.21z"/>
														</g>
													</g>
												</g>
											</g>
										</g>
										<g>
											<g>
												<g>
													<g>
														<g>
															<g>
																<path class="st5" d="M447.15,255.23c-0.27,0.28-1.89-0.92-4.19-0.92c-2.3-0.03-3.99,1.16-4.24,0.88
																	c-0.12-0.12,0.15-0.63,0.88-1.17c0.73-0.53,1.96-1.05,3.4-1.05c1.44,0.01,2.64,0.54,3.34,1.08
																	C447.04,254.6,447.28,255.11,447.15,255.23z"/>
															</g>
														</g>
													</g>
												</g>
											</g>
										</g>
									</g>
									<g>
										<g>
											<g>
												<g>
													<g>
														<g>
															<path class="st5" d="M421.37,257.64c0.04,1.13-0.89,2.1-2.07,2.16c-1.18,0.06-2.17-0.8-2.21-1.93
																c-0.04-1.13,0.89-2.1,2.06-2.16C420.34,255.65,421.33,256.51,421.37,257.64z"/>
														</g>
													</g>
												</g>
											</g>
										</g>
										<g>
											<g>
												<g>
													<g>
														<g>
															<g>
																<path class="st5" d="M424.48,255.66c-0.27,0.28-1.89-0.92-4.2-0.92c-2.3-0.03-3.99,1.16-4.25,0.88
																	c-0.12-0.12,0.15-0.63,0.88-1.17c0.73-0.53,1.96-1.05,3.4-1.05c1.44,0.01,2.64,0.54,3.34,1.08
																	C424.37,255.03,424.61,255.54,424.48,255.66z"/>
															</g>
														</g>
													</g>
												</g>
											</g>
										</g>
									</g>
									<g>
										<g>
											<g>
												<g>
													<g>
														<g>
															<path class="st5" d="M432.85,272.76c-0.01-0.13,1.42-0.38,3.74-0.68c0.59-0.06,1.15-0.18,1.24-0.58
																c0.14-0.43-0.11-1.06-0.39-1.75c-0.55-1.42-1.13-2.92-1.74-4.48c-2.42-6.38-4.17-11.63-3.91-11.73
																c0.26-0.1,2.43,5,4.84,11.38c0.58,1.57,1.14,3.07,1.67,4.51c0.22,0.67,0.61,1.43,0.31,2.31
																c-0.16,0.44-0.59,0.76-0.97,0.86c-0.38,0.12-0.71,0.12-1,0.14C434.31,272.88,432.86,272.89,432.85,272.76z"/>
														</g>
													</g>
												</g>
											</g>
										</g>
									</g>
									<g>
										<g>
											<g>
												<g>
													<g>
														<path class="st24" d="M434.44,300.04c0,0-11.24,0.72-22.37-5.97c0,0,5.43,11.48,22.15,9.91L434.44,300.04z"/>
													</g>
												</g>
											</g>
										</g>
									</g>
									<g>
										<g>
											<path class="st24" d="M426.36,276.37c0.53-0.32,1.08-0.65,1.69-0.73c0.61-0.08,1.32,0.17,1.57,0.74
												c0.09,0.19,0.12,0.41,0.24,0.58c0.33,0.46,1.05,0.3,1.59,0.45c0.86,0.25,1.21,1.38,0.88,2.21
												c-0.33,0.83-1.13,1.38-1.96,1.72c-1.13,0.47-2.37,0.64-3.58,0.49c-0.84-0.1-1.73-0.4-2.21-1.1
												c-0.58-0.83-0.39-2.02,0.18-2.86c0.57-0.84,1.44-1.42,2.29-1.98"/>
										</g>
									</g>
									<g>
										<g>
											<g>
												<g>
													<g>
														<g>
															<path class="st5" d="M426.07,274.36c0.38-0.02,0.38,2.48,2.52,4.26c2.14,1.78,4.81,1.5,4.83,1.85
																c0.04,0.16-0.59,0.49-1.72,0.52c-1.1,0.04-2.72-0.32-4.03-1.4c-1.31-1.09-1.87-2.54-1.95-3.57
																C425.62,274.96,425.9,274.34,426.07,274.36z"/>
														</g>
													</g>
												</g>
											</g>
										</g>
									</g>
								</g>
							</g>
						</g>
						<g>
							<g>
								<g>
									<g>
										<g>
											<path class="st5" d="M425.52,251.63c-0.23,0.63-2.53,0.33-5.23,0.66c-2.71,0.27-4.89,1.06-5.25,0.5
												c-0.16-0.27,0.22-0.86,1.1-1.47c0.87-0.61,2.27-1.18,3.89-1.36c1.62-0.18,3.11,0.08,4.1,0.48
												C425.12,250.84,425.62,251.33,425.52,251.63z"/>
										</g>
									</g>
								</g>
							</g>
						</g>
						<g>
							<g>
								<g>
									<g>
										<g>
											<path class="st5" d="M446.3,250.02c-0.41,0.52-1.99-0.02-3.9-0.05c-1.91-0.09-3.53,0.35-3.9-0.2
												c-0.16-0.27,0.09-0.79,0.8-1.29c0.7-0.49,1.86-0.9,3.17-0.86c1.31,0.04,2.45,0.52,3.11,1.05
												C446.26,249.23,446.48,249.77,446.3,250.02z"/>
										</g>
									</g>
								</g>
							</g>
						</g>
					</g>
				</g>
				<g>
					<g>
						<path class="st20" d="M440.33,229.22c-1.24,5.9-4.95,11.24-10.04,14.47c-5.09,3.23-11.51,4.3-17.37,2.9
							c-0.88,7.33-5.9,14.01-12.7,16.89c4.61,8.3,6.53,18.08,5.39,27.51c-0.49,4.05-1.66,8.28-4.7,11
							c-4.64,4.16-12.46,3.15-16.92-1.2c-4.27-4.16-5.78-10.69-4.58-16.53c1.21-5.84,4.87-10.98,9.49-14.77
							c-3.86-0.66-7.22-3.64-8.35-7.39c-1.13-3.75,0.04-8.09,2.89-10.77c1.32-1.24,2.97-2.16,3.96-3.67
							c0.94-1.43,1.16-3.19,1.73-4.8c1.49-4.21,5.26-7.13,8.84-9.8c3.03-2.26,6.35-4.63,10.14-4.62c2.02,0.01,4.02,0.7,6.02,0.43
							c2.75-0.37,4.89-2.46,7.17-4.04c3.21-2.23,7.18-3.6,11.05-3c3.86,0.61,7.48,3.49,8.21,7.34"/>
					</g>
				</g>
				<g>
					<g>
						<path class="st20" d="M438.84,230.87c-0.59,3.23,1.04,6.54,3.42,8.79s5.42,3.67,8.4,5.03c-1.17-3.14-2.37-6.33-4.32-9.05
							c-1.96-2.72-4.8-4.98-8.12-5.48"/>
					</g>
				</g>
				<g>
					<g>
						<g>
							<path class="st4" d="M365.36,269.39c0,0-0.16-0.35-0.09-1.05c0.07-0.69,0.47-1.72,1.5-2.58c1.02-0.88,2.7-1.33,4.56-1.25
								c1.87,0.03,3.95,0.62,6.24,0.48c2.26-0.13,4.68-1.48,6.08-3.76c0.72-1.13,1.06-2.5,1.14-3.93c0.09-1.44-0.03-2.94,0.05-4.5
								c0.06-1.55,0.45-3.22,1.46-4.57c0.99-1.36,2.44-2.33,4-3.01c3.15-1.42,6.74-1.45,10.18-2.09c1.73-0.32,3.41-0.82,4.85-1.7
								c1.45-0.87,2.62-2.1,3.62-3.42c1.95-2.68,3.26-5.68,5.05-8.22c1.75-2.59,4.13-4.52,6.61-5.75c2.48-1.25,5.06-1.82,7.41-1.86
								c2.36-0.03,4.47,0.41,6.22,1.06c1.76,0.63,3.15,1.47,4.21,2.23c2.12,1.56,2.95,2.78,2.95,2.78c-0.01,0.01-0.07-0.05-0.2-0.18
								c-0.15-0.15-0.33-0.33-0.55-0.55c-0.5-0.47-1.24-1.15-2.31-1.88c-2.1-1.44-5.65-3.19-10.3-3.09
								c-2.3,0.06-4.82,0.64-7.23,1.88c-2.41,1.22-4.71,3.11-6.41,5.64c-1.75,2.5-3.04,5.5-5.03,8.25
								c-1.01,1.35-2.23,2.65-3.76,3.56c-1.52,0.92-3.27,1.44-5.02,1.77c-3.52,0.65-7.04,0.68-10.08,2.05
								c-1.5,0.65-2.88,1.57-3.8,2.83c-0.95,1.25-1.31,2.79-1.38,4.3c-0.09,1.51,0.03,3.02-0.07,4.5c-0.09,1.47-0.46,2.94-1.23,4.13
								c-1.49,2.4-4.04,3.79-6.42,3.9c-2.39,0.12-4.44-0.51-6.27-0.56c-1.82-0.1-3.43,0.29-4.42,1.11c-1.01,0.8-1.43,1.78-1.52,2.44
								C365.27,269.03,365.39,269.39,365.36,269.39z"/>
						</g>
					</g>
				</g>
			</g>
		</g>
		<g>
			<g>
				<g>
					<g>
						<g>
							<polygon class="st5" points="390.2,346.58 391.26,373.22 393.94,398.72 422.27,397.51 420.23,347.16 							"/>
						</g>
					</g>
				</g>
				<g>
					<g>
						<g>
							<polygon class="st11" points="386.04,346.49 387.1,373.22 389.78,398.72 418.11,397.51 416.07,347.08 							"/>
						</g>
					</g>
				</g>
			</g>
			<g>
				<g>
					<g>
						<g>
							<path class="st21" d="M383.38,401.84c7.59-0.14,17.7-1.65,22.42-2.4c8.79-1.4,8.69-2.2,8.38-3.21
								c-0.84-2.7-15.54,1.88-12.9-0.95c2.64-2.82,18.57-3.5,17.58-6.28c-1.29-3.62-16.6,1.45-17.92,1.79
								c-1.29,0.32-1.8-1.58-0.59-1.82c1.74-0.34,19.93-4.37,18.7-7.94c-0.69-1.98-4.11-0.32-4.11-0.32s-16.78,5.03-17.31,3.32
								c-0.54-1.73,9.22-5.02,12.59-5.9c3.32-0.86,4.3-2.81,2.74-3.97c-1.07-0.79-11.43,1.64-14.73,2.58
								c-3.31,0.94-12.34,3.69-8.89-1.3c0.05-0.08,0.09-0.16,0.15-0.24c3.53-4.83,4.64-9.72,4.01-11.35
								c-0.62-1.59-2.87-1.49-3.72,0.01c-0.15,0.23-0.28,0.49-0.34,0.8c-0.02,0.13-0.09,0.29-0.13,0.43
								c-0.61,1.6-1.95,3.71-3.05,5.31c-1.04,1.52-2.32,2.85-3.8,3.93c-1.72,1.25-6.04,5.82-7.35,6.64"/>
						</g>
					</g>
				</g>
			</g>
			<g>
				<g>
					<polygon class="st12" points="376.89,379.47 391.87,401.84 367.18,427.02 368.02,386.18 					"/>
				</g>
			</g>
		</g>
	</g>
</g>
</svg>
